<svg width="159" height="29" viewBox="0 0 159 29" fill="none" xmlns="http://www.w3.org/2000/svg">
<g clip-path="url(#clip0_173_7992)">
<path d="M22.4392 13.925C22.4392 11.526 25.4235 10.1084 29.5757 10.1084C34.117 10.1084 34.5063 10.6536 34.5063 12.1803C34.5063 12.5074 34.3766 12.7255 33.9873 12.7255C33.598 12.7255 31.6517 12.1803 29.5757 12.1803C27.8889 12.1803 26.3318 12.7255 26.3318 13.7069C26.3318 16.106 36.0634 15.6698 36.0634 20.1407C36.0634 22.9759 31.9112 24.2845 28.5376 24.2845C25.4235 24.2845 22.4392 23.5212 22.4392 23.5212C22.4392 23.5212 22.1797 22.3217 22.1797 21.6674C22.1797 21.4493 22.4392 21.2312 22.6987 21.2312C22.9582 21.2312 25.8128 22.2126 28.6674 22.2126C30.8732 22.2126 32.041 21.3402 32.041 20.3588C32.041 17.8507 22.4392 18.0688 22.4392 13.925Z" fill="#909090" stroke="#909090" stroke-width="1.09047"/>
<path d="M42.1582 5.20048C42.1582 4.21906 44.4938 4.43715 45.2723 4.43715C45.6616 4.43715 46.0508 4.65525 46.0508 5.09143V12.5066C46.0508 12.6157 46.0508 12.7247 46.0508 12.7247C46.5698 12.7247 48.5161 10.2166 52.6683 10.2166C56.0419 10.2166 58.637 11.7433 58.637 14.3604V23.4113C58.637 23.8475 57.9882 24.0656 57.7287 24.0656H55.6526C55.2634 24.0656 54.7443 23.8475 54.7443 23.4113V15.669C54.7443 13.7061 54.3551 12.6157 52.0195 12.6157C48.5161 12.6157 46.0508 15.4509 46.0508 15.4509V23.5204C46.0508 23.8475 45.6616 24.1746 45.1425 24.1746H43.0665C42.5475 24.1746 42.1582 23.8475 42.1582 23.5204V5.20048Z" fill="#909090" stroke="#909090" stroke-width="1.09047"/>
<path d="M72.2639 9.56201C70.3176 9.56201 68.2415 9.78011 67.3332 10.1072C66.425 10.4344 66.2952 10.7615 66.2952 11.6339C66.2952 12.0701 66.425 12.7244 66.5547 12.7244C66.8142 12.7244 69.2795 11.852 72.2639 11.852C75.6375 11.852 76.8053 12.3972 76.8053 14.251C76.8053 14.4691 76.8053 14.6872 76.416 14.6872C69.6688 14.6872 64.6084 15.9958 64.6084 19.8124C64.6084 22.7567 67.7225 24.2834 70.4473 24.2834C74.0804 24.2834 75.897 22.6476 76.6755 22.6476C77.1945 22.6476 76.935 23.8472 78.2326 23.8472H79.6599C80.1789 23.8472 80.3086 23.52 80.3086 23.1929V14.9053C80.5681 11.5249 78.7516 9.56201 72.2639 9.56201ZM76.8053 19.8124C76.8053 20.6848 73.6912 21.7753 71.7449 21.7753C70.3176 21.7753 68.3713 21.3391 68.3713 19.5943C68.3713 16.541 74.9887 16.7591 76.416 16.7591C76.5458 16.7591 76.8053 16.7591 76.8053 16.7591V19.8124Z" fill="#909090" stroke="#909090" stroke-width="1.09047"/>
<path d="M98.3452 10.1084C94.193 10.1084 91.8575 12.6165 91.8575 12.6165C91.8575 12.6165 91.5979 11.9622 91.4682 11.3079C91.2087 10.6536 90.9492 10.4355 90.3004 10.4355H88.8731C88.6136 10.4355 87.9648 10.5446 87.9648 11.0898V28.2102C87.9648 28.6464 88.3541 28.8645 88.6136 28.8645H91.2087C91.7277 28.8645 91.8575 28.5373 91.8575 28.2102V22.6488C91.8575 22.6488 93.9335 24.2845 97.6964 24.2845C102.757 24.2845 106.001 20.686 106.001 16.7603C106.001 12.6165 103.016 10.1084 98.3452 10.1084ZM96.9179 22.1036C94.4525 22.1036 91.8575 21.0131 91.8575 19.9226V14.5793C91.8575 14.5793 94.3228 12.5074 97.3071 12.5074C100.291 12.5074 101.719 14.1431 101.719 17.0874C101.849 19.4864 100.421 22.1036 96.9179 22.1036Z" fill="#909090" stroke="#909090" stroke-width="1.09047"/>
<path d="M115.078 17.959C115.078 17.7409 115.208 17.6318 115.467 17.6318H126.756C127.145 17.6318 127.664 17.4137 127.664 16.7594C127.664 12.9428 125.199 9.99854 119.879 9.99854C115.078 9.99854 110.926 12.6157 110.926 16.9775C110.926 21.3394 115.597 24.0656 121.176 24.0656C123.382 24.0656 127.145 23.7384 127.405 22.757C127.534 22.3208 127.664 21.0123 127.664 21.0123C127.664 21.0123 125.199 21.9937 121.825 21.9937C116.894 22.2118 115.078 19.7037 115.078 17.959ZM119.619 12.1795C122.214 12.1795 123.642 13.379 123.642 15.2328C123.642 15.5599 123.382 15.5599 122.993 15.5599H114.948C115.078 15.2328 115.208 12.1795 119.619 12.1795Z" fill="#909090" stroke="#909090" stroke-width="1.09047"/>
<path d="M6.47634 17.5228C5.95733 17.5228 5.69782 17.3047 5.69782 16.8685V16.2142C5.69782 15.778 5.95733 15.5599 6.47634 15.5599H7.64413C10.1095 15.5599 12.3153 15.0147 12.3153 13.488C12.3153 12.3976 10.369 11.9614 8.2929 11.9614C5.56807 11.9614 2.71348 12.8338 2.71348 12.8338C2.71348 12.8338 2.84323 12.5066 2.84323 11.7433C2.84323 11.5252 2.97299 10.98 2.97299 10.98C2.97299 10.3257 5.43831 9.99854 8.2929 9.99854C13.2235 9.99854 15.8186 11.1981 15.8186 13.1609C15.8186 15.669 11.407 16.4323 11.407 16.4323C11.407 16.4323 16.5972 16.8685 16.5972 20.0309C16.5972 22.3208 14.0021 24.1746 8.16315 24.1746C5.43831 24.1746 2.71348 23.7385 2.71348 23.7385C2.71348 23.7385 2.32422 22.4299 2.32422 21.9937C2.32422 21.7756 2.58373 21.5575 2.84323 21.5575C3.10274 21.5575 6.34659 22.2118 8.03339 22.2118C10.7582 22.2118 12.8343 21.6666 12.8343 20.1399C12.8343 18.2861 10.6285 17.5228 6.86561 17.5228H6.47634Z" fill="#909090" stroke="#909090" stroke-width="1.09047"/>
<path d="M138.826 1.92947C138.178 1.60233 137.399 1.71138 137.139 2.14757C136.88 2.47471 136.75 2.91089 136.75 3.12899C136.75 3.34708 134.155 15.9965 134.025 16.7599C134.025 17.196 134.155 17.5232 134.544 17.7413C134.804 17.9594 135.193 17.9594 135.453 17.9594C136.101 17.8503 154.397 13.8156 155.435 13.7065C155.694 13.7065 156.084 13.4885 156.213 13.2704C156.603 12.8342 156.473 12.1799 155.954 11.8527C155.175 11.3075 139.735 2.47471 138.826 1.92947ZM138.048 7.38182C138.437 6.29135 138.437 5.52802 138.826 5.09183C139.086 4.76469 139.605 4.65565 139.994 4.87374C140.643 5.30993 140.773 6.4004 140.254 7.27277C139.735 8.14515 136.101 14.3608 136.101 14.3608C136.101 14.3608 137.139 10.108 138.048 7.38182ZM151.023 11.4166C151.023 11.5256 151.023 11.6347 150.893 11.7437C150.634 11.9618 150.245 12.1799 149.855 12.2889C149.466 12.398 138.826 15.8875 138.437 15.9965C138.048 16.1056 137.269 16.4327 137.01 16.2146C136.62 15.9965 136.88 15.5603 137.139 15.1242C138.178 13.8156 142.07 8.90848 142.459 8.2542C143.108 7.49087 144.146 7.16373 145.054 7.70896C146.093 8.36324 150.245 10.7623 150.504 10.8713C150.764 11.0894 151.023 11.1985 151.023 11.4166Z" fill="#909090" stroke="#909090" stroke-width="1.09047"/>
</g>
<defs>
<clipPath id="clip0_173_7992">
<rect width="158.3" height="28.3522" fill="white"/>
</clipPath>
</defs>
</svg>
