<svg width="132" height="29" viewBox="0 0 132 29" fill="none" xmlns="http://www.w3.org/2000/svg">
<g clip-path="url(#clip0_173_8042)">
<path d="M12.3374 0.000488281L14.3108 7.39328L7.96339 18.4134L0.98416 20.2871C0.383741 18.6632 0.0121501 16.9286 0 15.0976L4.50365 13.8889L8.67316 6.64729L7.40955 1.93901C8.9111 1.03166 10.5564 0.344551 12.3374 0.000488281Z" fill="#909090"/>
<path d="M22.5154 18.4144L29.4948 20.288C30.0951 18.664 30.4668 16.9286 30.4789 15.0986L25.9752 13.8908L21.8056 6.64926L23.0692 1.94097C21.5678 1.03362 19.9224 0.346505 18.1414 0.00244141L16.168 7.39524L22.5154 18.4144Z" fill="#909090"/>
<path d="M8.89238 19.9795L3.83691 25.0462C5.01041 26.3828 6.40465 27.4911 7.97402 28.3518L11.0693 25.2502H19.4083L22.5015 28.3518C24.072 27.4911 25.4651 26.3828 26.6397 25.0462L21.5852 19.9795H8.89238Z" fill="#909090"/>
<path fill-rule="evenodd" clip-rule="evenodd" d="M61.7917 10.9778V21.4082H64.0526V25.8557H60.206C58.2599 25.8557 57.4014 24.7667 57.4014 23.2261V22.6353C56.4506 24.5403 53.8647 26.2657 50.7948 26.2657H49.5716C44.5891 26.2657 40.4297 23.6299 40.4297 18.6903C40.4297 14.8782 43.1898 11.5207 48.8022 11.5207H57.042V10.9778C57.042 8.71039 55.4574 6.39429 51.8832 6.39429H50.66C47.5831 6.39429 46.043 8.16333 45.7261 9.93237H41.1091C41.7905 5.07894 45.5905 2.08691 50.7046 2.08691H51.9277C58.5778 2.08691 61.7917 6.57496 61.7917 10.9778ZM50.7958 21.9553C54.9603 21.9553 57.042 19.3703 57.042 16.6919L57.043 15.6505H48.8032C46.9938 15.6505 45.4092 16.7365 45.4092 18.6425C45.4092 20.6846 47.0819 21.9553 49.5726 21.9553H50.7958Z" fill="#909090"/>
<path fill-rule="evenodd" clip-rule="evenodd" d="M77.1062 2.08691C70.046 2.08691 65.2043 7.21031 65.2043 14.1504L65.2031 14.1514C65.2031 21.1403 70.0014 26.2667 77.1498 26.2667C82.5374 26.2667 86.7453 23.4513 88.2378 18.6425H82.7621C81.7668 20.5486 79.6851 21.7269 77.1943 21.7269C73.4835 21.7269 70.9046 19.4586 70.2709 15.9682H88.8281V14.1504C88.8281 6.25728 83.3038 2.08691 77.1062 2.08691ZM77.1508 6.5303C80.0922 6.5303 82.8999 8.07402 83.7139 11.7938H70.3629C71.1779 8.57336 73.6647 6.5303 77.1508 6.5303Z" fill="#909090"/>
<path d="M97.2902 7.03037V2.49463H92.3105V25.8565H97.2892V13.7005C97.2892 10.1625 99.46 7.52871 102.989 7.52871H105.662V2.49463H103.672C100.275 2.49463 97.8318 4.76198 97.2902 7.03037Z" fill="#909090"/>
<path fill-rule="evenodd" clip-rule="evenodd" d="M106.382 14.1504C106.382 7.21031 111.496 2.08691 118.645 2.08691C125.795 2.08691 130.909 7.21031 130.909 14.1504C130.909 21.0906 125.795 26.2657 118.645 26.2657C111.496 26.2657 106.382 21.1393 106.382 14.1504ZM125.886 14.1504C125.886 9.75171 122.764 6.75967 118.645 6.75967C114.526 6.75967 111.405 9.75171 111.405 14.1504C111.405 18.5492 114.526 21.5452 118.645 21.5452C122.764 21.5452 125.886 18.5978 125.886 14.1504Z" fill="#909090"/>
</g>
<defs>
<clipPath id="clip0_173_8042">
<rect width="131.68" height="28.3183" fill="white"/>
</clipPath>
</defs>
</svg>
