<?xml version="1.0" encoding="UTF-8" standalone="no"?>
<!-- Created with Inkscape (http://www.inkscape.org/) -->

<svg
   version="1.1"
   id="svg1"
   width="742.54669"
   height="260"
   viewBox="0 0 742.54669 260"
   sodipodi:docname="disneycruiselogo.eps"
   xmlns:inkscape="http://www.inkscape.org/namespaces/inkscape"
   xmlns:sodipodi="http://sodipodi.sourceforge.net/DTD/sodipodi-0.dtd"
   xmlns="http://www.w3.org/2000/svg"
   xmlns:svg="http://www.w3.org/2000/svg">
  <defs
     id="defs1" />
  <sodipodi:namedview
     id="namedview1"
     pagecolor="#ffffff"
     bordercolor="#000000"
     borderopacity="0.25"
     inkscape:showpageshadow="2"
     inkscape:pageopacity="0.0"
     inkscape:pagecheckerboard="0"
     inkscape:deskcolor="#d1d1d1">
    <inkscape:page
       x="0"
       y="0"
       inkscape:label="1"
       id="page1"
       width="742.54669"
       height="368.18668"
       margin="0"
       bleed="0" />
  </sodipodi:namedview>
  <g
     id="g1"
     inkscape:groupmode="layer"
     inkscape:label="1">
    <g
       id="group-R5">
      <path
         id="path2"
         d="m 3277.43,1365.63 v 397 h 56.63 v -399.2 c 0,-27.25 -9.22,-49.75 -27.66,-67.5 -18.49,-17.77 -45.53,-26.64 -81.17,-26.64 -36.27,0 -64.14,8.87 -83.56,26.64 -19.43,17.75 -29.16,40.74 -29.16,68.96 v 397.74 h 57.64 v -396.27 c 0.16,-48.93 54.85,-46.74 54.85,-46.74 0,0 52.81,0.31 52.43,46.01"
         style="fill:#265fa6;fill-opacity:1;fill-rule:nonzero;stroke:none"
         transform="matrix(0.13333333,0,0,-0.13333333,0,368.18667)" />
      <path
         id="path3"
         d="m 3496.14,1266.72 v 495.91 h 62.92 v -495.91 h -62.92"
         style="fill:#265fa6;fill-opacity:1;fill-rule:nonzero;stroke:none"
         transform="matrix(0.13333333,0,0,-0.13333333,0,368.18667)" />
      <path
         id="path4"
         d="m 4836.14,1266.51 v 496.12 h 62.92 v -496.12 h -62.92"
         style="fill:#265fa6;fill-opacity:1;fill-rule:nonzero;stroke:none"
         transform="matrix(0.13333333,0,0,-0.13333333,0,368.18667)" />
      <path
         id="path5"
         d="m 4533.54,1265.41 v 641.92 h 58.44 v -594.76 h 149.04 v -47.16 h -207.48"
         style="fill:#265fa6;fill-opacity:1;fill-rule:nonzero;stroke:none"
         transform="matrix(0.13333333,0,0,-0.13333333,0,368.18667)" />
      <path
         id="path6"
         d="m 5210.08,1265.41 v 211.07 L 5099,1607.84 v -342.43 h -56.07 v 495.24 l 167.15,-193.26 v 195.24 h 56.07 v -497.22 h -56.07"
         style="fill:#265fa6;fill-opacity:1;fill-rule:nonzero;stroke:none"
         transform="matrix(0.13333333,0,0,-0.13333333,0,368.18667)" />
      <path
         id="path7"
         d="m 2613.14,2353.05 c -86.39,-7.06 -182.39,-15.87 -182.39,-46.75 0,-23.8 40.14,-52.91 64.58,-71.43 27.93,-22.92 69.81,-44.08 109.96,-52.9 z m -283.64,309.54 c -19.2,0 -41.89,2.65 -41.89,14.11 0,81.14 141.39,84.66 201.61,84.66 78.55,0 178.91,-24.69 264.44,-55.55 130.04,-47.62 393.62,-206.36 393.62,-388.03 0,-160.51 -171.06,-237.23 -329.91,-237.23 -40.14,0 -88.15,7.04 -127.42,13.23 -2.62,-9.71 -4.36,-16.76 -10.47,-37.05 -10.48,-1.75 -19.2,-3.52 -30.55,-3.52 l -20.07,1.77 c -13.09,15.88 -17.46,41.44 -22.7,68.78 -79.41,46.75 -130.9,86.42 -154.48,113.78 -20.07,21.14 -42.75,49.36 -42.75,76.69 0,14.14 8.72,26.47 28.8,40.58 41.02,30.86 93.38,47.63 178.91,62.61 l 1.74,36.17 c 0.87,8.81 9.6,103.18 29.68,120.81 32.29,-26.45 35.78,-53.79 38.4,-94.36 0.87,-17.64 1.74,-36.15 4.37,-55.56 h 12.22 c 61.09,0 247.84,-15.88 247.84,-104.94 0,-21.17 -30.53,-60.86 -60.21,-60.86 -10.47,0 -29.67,4.42 -38.39,11.47 13.09,14.99 32.29,28.22 37.52,39.69 -17.46,21.16 -111.71,45.85 -180.66,45.85 -11.35,0 -15.71,0 -22.69,-0.88 l 0.87,-193.13 c 27.93,-17.63 61.97,-19.4 83.79,-19.4 95.99,0 294.98,16.75 294.98,173.73 0,155.21 -196.36,275.15 -342.98,331.59 -102.98,39.69 -200.74,59.97 -315.07,59.97 -23.56,0 -48,-1.76 -71.56,-7.93 -14.84,-3.53 -20.07,-7.07 -20.07,-10.59 0,-6.17 29.68,-9.7 33.16,-11.46 2.62,-1.77 4.37,-4.42 4.37,-7.07 0,-1.76 -0.88,-4.4 -3.5,-7.05 -3.49,0 -11.35,-0.88 -20.95,-0.88"
         style="fill:#ed223c;fill-opacity:1;fill-rule:nonzero;stroke:none"
         transform="matrix(0.13333333,0,0,-0.13333333,0,368.18667)" />
      <path
         id="path8"
         d="m 3214.4,2525.02 h 19.2 c 43.64,0 132.67,29.98 132.67,83.78 0,12.34 0,22.04 -22.7,22.04 -50.61,0 -100.35,-49.39 -136.15,-98.76 0,-1.77 4.39,-7.06 6.98,-7.06 z m 27.06,-155.23 c 1.76,-71.42 8.74,-146.37 8.74,-216.92 0,-14.12 -5.24,-30.88 -27.06,-30.88 -6.99,0 -17.46,2.65 -24.44,5.28 -11.35,3.56 -16.58,37.93 -17.45,46.76 0,44.97 0.87,45.86 2.61,92.58 0.89,12.36 3.49,60.87 14.84,149.94 0.88,4.4 1.75,6.16 5.26,6.16 31.39,-0.87 35.76,-19.39 37.5,-52.92 z m -82.91,192.26 c 1.74,0 3.5,0.89 4.37,1.77 11.35,15.88 48.01,51.15 68.07,70.55 v 0.88 c 0,0.89 0,2.65 -1.73,4.41 -43.63,-8.82 -70.71,-41.45 -74.2,-75.84 0.88,-0.88 1.75,-1.77 3.49,-1.77 z m 200.73,104.07 c 14.86,0 48.89,-14.99 48.89,-47.63 0,-67.9 -115.21,-145.51 -172.82,-145.51 -17.45,0 -39.27,2.66 -54.98,7.94 -9.59,-11.46 -13.1,-21.16 -26.18,-22.92 -8.73,1.76 -20.08,18.51 -21.82,37.91 0,4.42 1.74,10.59 2.61,15 -13.09,17.64 -22.68,33.51 -22.68,52.91 0,58.2 86.4,135.82 169.32,135.82 38.39,0 68.95,-15 74.17,-34.4 0.87,0 1.74,0.88 3.49,0.88"
         style="fill:#ed223c;fill-opacity:1;fill-rule:nonzero;stroke:none"
         transform="matrix(0.13333333,0,0,-0.13333333,0,368.18667)" />
      <path
         id="path9"
         d="m 3340.06,2341.58 c 0,-0.88 0.87,-1.76 1.75,-1.76 33.17,-12.34 54.99,-16.76 89.91,-18.52 59.33,-4.4 147.48,-5.29 147.48,-88.19 0,-95.23 -104.74,-100.54 -132.66,-100.54 -74.19,0 -139.62,47.62 -139.62,83.79 0,43.21 44.51,54.68 79.39,54.68 33.17,0 76.83,-8.84 112.6,-27.34 0.88,-0.89 1.74,-1.77 1.74,-3.54 0,-2.62 -0.86,-4.41 -1.74,-5.29 -6.99,-7.05 -27.92,-17.64 -49.75,-17.64 -25.31,0 -60.2,21.18 -94.26,21.18 -12.2,0 -27.06,-2.66 -27.06,-22.05 0,-22.06 39.27,-22.06 70.7,-22.06 16.59,0 137.03,14.13 137.03,46.74 0,30.88 -91.63,44.1 -129.17,44.98 -100.36,2.66 -113.46,13.24 -113.46,50.28 0,82.89 165.83,89.07 173.67,89.07 43.65,0 82.92,-7.95 111.72,-15 6.11,-0.87 9.61,-3.53 9.61,-13.23 -0.89,-10.58 -9.61,-16.75 -19.21,-20.29 -6.98,-1.76 -21.82,-4.39 -28.8,-5.28 -30.55,-4.41 -120.45,-7.94 -148.37,-13.22 -28.79,-4.43 -41,-7.94 -49.75,-13.24 -0.88,-0.86 -1.75,-2.64 -1.75,-3.53"
         style="fill:#ed223c;fill-opacity:1;fill-rule:nonzero;stroke:none"
         transform="matrix(0.13333333,0,0,-0.13333333,0,368.18667)" />
      <path
         id="path10"
         d="m 3765.07,2451.83 c 0,7.05 0.88,18.51 8.73,18.51 24.42,0 94.27,-87.3 94.27,-209.89 0,-53.79 -24.46,-118.17 -67.22,-118.17 -50.63,0 -103.85,164.02 -116.07,164.02 -1.74,0 -4.38,-2.63 -6.11,-9.68 -2.62,-10.6 -4.37,-103.17 -8.73,-130.53 -2.63,-12.36 -6.98,-41.45 -26.18,-41.45 -27.92,0 -34.04,48.5 -34.04,69.66 0,45.86 22.69,208.14 60.22,208.14 26.18,0 78.55,-110.24 124.8,-168.45 3.48,-3.51 5.23,-7.06 6.11,-7.06 5.23,0 5.23,7.94 5.23,22.95 0,81.12 -16.57,104.93 -38.39,187.83 l -2.62,10.58 v 3.54"
         style="fill:#ed223c;fill-opacity:1;fill-rule:nonzero;stroke:none"
         transform="matrix(0.13333333,0,0,-0.13333333,0,368.18667)" />
      <path
         id="path11"
         d="m 4098.42,2166.09 c -23.56,-18.54 -76.79,-59.97 -134.41,-59.97 -47.99,0 -69.82,36.16 -69.82,74.07 0,20.29 12.23,47.63 21.83,74.96 -2.62,8.84 -7,14.14 -7,22.94 0,7.05 2.63,10.59 4.38,17.64 6.97,2.64 14.83,6.17 22.69,7.06 l 20.94,48.51 c -20.08,9.68 -49.74,21.16 -49.74,39.67 0,9.7 7.86,12.35 22.69,13.24 36.65,1.74 79.42,17.63 150.99,17.63 7.85,0 17.45,-0.89 35.77,-6.18 7.86,-9.71 27.94,-28.22 27.94,-43.2 0,-8.83 -30.55,-18.54 -47.14,-19.41 -37.53,-2.64 -46.24,-1.75 -69.81,-2.64 -4.36,0 -8.74,0 -13.09,-0.89 -3.5,-3.53 -10.49,-14.99 -10.49,-37.03 0,-3.53 1.76,-8.82 7.87,-8.82 h 64.58 l 12.22,-1.77 c 4.36,-6.17 5.23,-17.63 5.23,-25.56 0,-7.05 -1.74,-20.3 -9.6,-21.19 -15.7,-0.88 -54.99,-2.63 -98.62,-2.63 -1.75,0 -3.49,0 -5.21,-3.53 -4.39,-18.51 -12.23,-39.69 -20.98,-59.08 4.37,0 37.53,8.8 93.4,14.1 8.73,0.89 20.07,1.77 28.8,1.77 10.47,0 21.81,-14.99 21.81,-26.47 0,-5.28 -0.87,-10.57 -5.23,-13.22"
         style="fill:#ed223c;fill-opacity:1;fill-rule:nonzero;stroke:none"
         transform="matrix(0.13333333,0,0,-0.13333333,0,368.18667)" />
      <path
         id="path12"
         d="m 4345.4,2229.59 c 24.42,21.17 37.52,50.26 37.52,86.42 0,9.69 0,24.69 -11.34,24.69 -14.85,0 -48.01,-39.68 -61.1,-56.43 -9.6,-13.23 -44.51,-80.26 -50.62,-95.25 29.67,3.53 58.48,16.76 85.54,40.57 z m -195.5,-364.23 c -34.9,3.55 -58.47,32.62 -58.47,70.57 0,16.75 13.95,111.99 62.84,230.16 -9.61,21.15 -15.72,43.21 -15.72,64.39 0,90.82 87.28,198.41 104.71,200.18 12.24,-1.77 13.99,-8.82 13.99,-24.71 0,-17.62 -10.47,-29.1 -37.53,-70.53 -13.97,-22.06 -34.04,-58.21 -34.04,-89.96 0,-3.53 0,-8.82 2.62,-10.59 h 1.75 c 0.86,0 1.73,0.88 3.49,3.54 41.88,56.44 128.28,162.26 172.8,162.26 45.39,0 56.73,-74.08 56.73,-109.35 0,-104.08 -129.17,-178.14 -187.65,-178.14 -6.1,0 -12.22,-0.89 -19.19,-1.76 -34.03,-100.53 -40.15,-143.75 -63.72,-239 l -2.61,-7.06"
         style="fill:#ed223c;fill-opacity:1;fill-rule:nonzero;stroke:none"
         transform="matrix(0.13333333,0,0,-0.13333333,0,368.18667)" />
      <path
         id="path13"
         d="m 2673,1258.89 c -157.34,22.21 -278.53,160.67 -278.53,328.14 0,167.48 121.19,315.93 278.53,338.13 v -76.55 c -115.75,-43.95 -196.94,-146.6 -196.94,-266.24 0,-118.32 83.22,-210.6 196.94,-255.34 v -68.14"
         style="fill:#265fa6;fill-opacity:1;fill-rule:nonzero;stroke:none"
         transform="matrix(0.13333333,0,0,-0.13333333,0,368.18667)" />
      <path
         id="path14"
         d="m 2832.4,1697.86 -0.27,-294.19 58.58,-21.72 95.85,-114.88 -80,1.08 -67.5,84.83 -3.81,-0.99 0.06,-83.84 h -56.26 v 494.48 l 27.93,-15.19"
         style="fill:#265fa6;fill-opacity:1;fill-rule:nonzero;stroke:none"
         transform="matrix(0.13333333,0,0,-0.13333333,0,368.18667)" />
      <path
         id="path15"
         d="m 2821.15,1402.62 c 66.66,23.57 100.73,77.78 100.73,144.45 0,78.58 -54.71,133.17 -130.32,151.62 l -12.51,63.94 c 122.51,-36.44 198.69,-102.36 199.39,-216.44 0.51,-83.13 -48.11,-148.73 -110,-182.73 l -47.29,39.16"
         style="fill:#265fa6;fill-opacity:1;fill-rule:nonzero;stroke:none"
         transform="matrix(0.13333333,0,0,-0.13333333,0,368.18667)" />
      <path
         id="path16"
         d="m 3676.56,1636.03 c 5.94,69.6 84.21,109.73 132.84,126.6 l 27.11,-42.41 c 0,0 -92.58,-19.79 -95.25,-86.42 -1.21,-30.3 22.82,-66.79 73.14,-124.98 134.66,-155.71 -37.21,-230.75 -100.96,-242.31 l -23.13,43.55 c 0,0 196.59,39.26 56.59,185.44 -55.25,57.69 -73.55,102.81 -70.34,140.53"
         style="fill:#265fa6;fill-opacity:1;fill-rule:nonzero;stroke:none"
         transform="matrix(0.13333333,0,0,-0.13333333,0,368.18667)" />
      <path
         id="path17"
         d="m 4047.81,1266.72 h -52.5 v 495.91 h 52.5 v -495.91"
         style="fill:#265fa6;fill-opacity:1;fill-rule:nonzero;stroke:none"
         transform="matrix(0.13333333,0,0,-0.13333333,0,368.18667)" />
      <path
         id="path18"
         d="m 4029.48,1708.98 h 125.83 v 53.65 h -125.83 v -53.65"
         style="fill:#265fa6;fill-opacity:1;fill-rule:nonzero;stroke:none"
         transform="matrix(0.13333333,0,0,-0.13333333,0,368.18667)" />
      <path
         id="path19"
         d="m 4029.48,1266.72 h 138.33 v 51.02 h -138.33 v -51.02"
         style="fill:#265fa6;fill-opacity:1;fill-rule:nonzero;stroke:none"
         transform="matrix(0.13333333,0,0,-0.13333333,0,368.18667)" />
      <path
         id="path20"
         d="m 4029.48,1397.51 h 125.83 v 50.4 h -125.83 v -50.4"
         style="fill:#265fa6;fill-opacity:1;fill-rule:nonzero;stroke:none"
         transform="matrix(0.13333333,0,0,-0.13333333,0,368.18667)" />
      <path
         id="path21"
         d="m 5449.06,1266.72 h -52.5 v 495.91 h 52.5 v -495.91"
         style="fill:#265fa6;fill-opacity:1;fill-rule:nonzero;stroke:none"
         transform="matrix(0.13333333,0,0,-0.13333333,0,368.18667)" />
      <path
         id="path22"
         d="m 5430.73,1708.98 h 125.83 v 53.65 h -125.83 v -53.65"
         style="fill:#265fa6;fill-opacity:1;fill-rule:nonzero;stroke:none"
         transform="matrix(0.13333333,0,0,-0.13333333,0,368.18667)" />
      <path
         id="path23"
         d="m 5430.73,1266.72 h 138.33 v 51.02 h -138.33 v -51.02"
         style="fill:#265fa6;fill-opacity:1;fill-rule:nonzero;stroke:none"
         transform="matrix(0.13333333,0,0,-0.13333333,0,368.18667)" />
      <path
         id="path24"
         d="m 5430.73,1397.51 h 125.83 v 50.4 h -125.83 v -50.4"
         style="fill:#265fa6;fill-opacity:1;fill-rule:nonzero;stroke:none"
         transform="matrix(0.13333333,0,0,-0.13333333,0,368.18667)" />
      <path
         id="path25"
         d="m 0,2195.78 c 0,0 123.223,-203.49 589.473,35 479.977,245.51 864.997,365 1154.997,-30 0,0 -192.5,327.5 -752.497,-12.5 -456.094,-276.92 -810,-247.88 -991.973,7.5"
         style="fill:#265fa6;fill-opacity:1;fill-rule:nonzero;stroke:none"
         transform="matrix(0.13333333,0,0,-0.13333333,0,368.18667)" />
      <path
         id="path26"
         d="m 265.723,1954.53 c 0,0 120,-207.5 596.25,42.12 477.507,250.27 839.997,371.63 1129.997,-23.37 0,0 -167.5,320.87 -727.5,-19.13 -456.091,-276.92 -816.775,-255 -998.747,0.38"
         style="fill:#265fa6;fill-opacity:1;fill-rule:nonzero;stroke:none"
         transform="matrix(0.13333333,0,0,-0.13333333,0,368.18667)" />
      <path
         id="path27"
         d="m 525,1727.52 c 0,0 123.223,-203.6 589.47,35 479.93,245.59 832.5,397.01 1155,-30 0,0 -213.75,320.69 -752.5,-12.5 -453.8,-280.66 -809.997,-247.88 -991.97,7.5"
         style="fill:#265fa6;fill-opacity:1;fill-rule:nonzero;stroke:none"
         transform="matrix(0.13333333,0,0,-0.13333333,0,368.18667)" />
      <path
         id="path28"
         d="m 1153.64,1682.46 c -133.71,0 -242.495,108.78 -242.495,242.49 0,28.99 5.273,57.89 15.386,84.97 -5.617,-0.6 -11.234,-0.9 -16.84,-0.9 -45.625,0 -85.39,19.66 -109.093,53.93 -42.739,61.75 -19.719,151.98 51.312,201.14 29.477,20.39 63.028,31.17 97.028,31.17 45.679,0 85.512,-19.7 109.282,-54.04 16.98,-24.53 24.04,-54.65 20.57,-85.59 24.08,7.84 49.15,11.81 74.85,11.81 29.07,0 58,-5.27 85.09,-15.41 -4.46,32.12 2.45,63.45 20.26,89.19 23.77,34.34 63.6,54.04 109.29,54.04 33.51,0 67.97,-11.07 97.02,-31.17 71.03,-49.16 94.05,-139.39 51.32,-201.14 -23.72,-34.29 -63.49,-53.95 -109.11,-53.95 0,0 0,0 -0.01,0 -9.11,0 -18.21,0.78 -27.26,2.34 10.45,-27.46 15.89,-56.82 15.89,-86.39 0,-133.71 -108.78,-242.49 -242.49,-242.49 v 0"
         style="fill:#ed223c;fill-opacity:1;fill-rule:nonzero;stroke:none"
         transform="matrix(0.13333333,0,0,-0.13333333,0,368.18667)" />
      <path
         id="path29"
         d="m 1368.28,2310.26 c -50.68,0 -95.01,-22.05 -121.62,-60.51 -15.67,-22.64 -23.84,-49.07 -24.25,-76.66 -22.32,6.17 -45.5,9.35 -68.77,9.35 -20.1,0 -39.84,-2.29 -59.06,-6.82 -0.85,26.79 -8.97,52.38 -24.02,74.13 -26.61,38.45 -70.943,60.51 -121.622,60.51 -37.063,0 -73.567,-11.7 -105.563,-33.84 -77.832,-53.85 -102.555,-153.46 -55.113,-222.01 25.832,-37.34 68.437,-59.19 117.359,-60.34 -6.258,-22.45 -9.476,-45.76 -9.476,-69.12 0,-141.99 115.515,-257.49 257.495,-257.49 141.99,0 257.49,115.5 257.49,257.49 0,23.42 -3.21,46.72 -9.46,69.15 1.95,-0.07 3.89,-0.1 5.84,-0.1 50.62,0 94.88,22.02 121.44,60.41 47.44,68.55 22.72,168.16 -55.11,222.01 -32,22.14 -68.5,33.84 -105.56,33.84 z m 0,-30 c 29.57,0 60.77,-9.33 88.49,-28.5 64.33,-44.53 85.6,-125.24 47.51,-180.28 -21.64,-31.28 -57.78,-47.48 -96.77,-47.48 -17.91,0 -36.43,3.42 -54.4,10.37 17.85,-32.47 28.02,-69.75 28.02,-109.42 0,-125.65 -101.85,-227.49 -227.49,-227.49 -125.64,0 -227.495,101.84 -227.495,227.49 0,38.01 9.375,73.82 25.859,105.31 -14.113,-4.18 -28.391,-6.24 -42.313,-6.24 -38.976,0 -75.125,16.19 -96.761,47.46 -38.086,55.04 -16.817,135.75 47.515,180.28 27.723,19.17 58.914,28.5 88.493,28.5 39.05,0 75.282,-16.26 96.952,-47.58 20.43,-29.53 23.63,-66.43 12.4,-101.2 29.01,13.42 61.29,20.96 95.35,20.96 38.78,0 75.27,-9.73 107.22,-26.84 -13.59,36.44 -11.12,75.88 10.46,107.08 21.68,31.32 57.9,47.58 96.96,47.58"
         style="fill:#ffffff;fill-opacity:1;fill-rule:nonzero;stroke:none"
         transform="matrix(0.13333333,0,0,-0.13333333,0,368.18667)" />
    </g>
  </g>
</svg>
