<svg width="178" height="29" viewBox="0 0 178 29" fill="none" xmlns="http://www.w3.org/2000/svg">
<g clip-path="url(#clip0_186_4054)">
<path d="M126.116 10.3544L126.13 10.3525C126.584 10.2981 127.915 10.4051 128.383 10.5162C138.416 12.8989 137.284 23.5026 127.13 24.7066C124.482 24.7577 122.18 24.2307 120.079 22.4976C117.269 20.1916 116.753 16.2116 119.206 13.4307C121.087 11.2973 123.385 10.5661 126.116 10.3544ZM127.34 22.0231C128.955 21.7201 130.38 21.1493 131.355 19.7291C131.94 18.8916 132.166 17.8547 131.983 16.8493C131.46 14.0406 128.33 12.7853 125.746 13.0262C124.076 13.3344 122.629 13.8225 121.61 15.3123C121.015 16.1663 120.787 17.2237 120.977 18.2474C121.506 21.0871 124.738 22.3366 127.34 22.0231Z" fill="#909090"/>
<path d="M59.6919 10.5237C61.8983 10.1262 65.4909 11.4212 67.0689 12.9577C72.2107 17.9644 67.4154 24.5959 61.288 24.8145C61.2712 24.8163 61.2543 24.818 61.2373 24.8197C55.1073 25.3989 48.4875 19.8912 53.0733 13.6445C54.502 11.6983 57.3183 10.7427 59.6919 10.5237ZM61.2352 22.1536C67.0181 21.4814 67.7182 14.8376 62.0396 13.3451C61.1952 13.1232 60.3918 13.1613 59.5298 13.1954C55.192 14.0339 52.8072 17.9468 56.8699 21.2076C57.7732 21.9326 60.105 22.4779 61.2352 22.1536Z" fill="#909090"/>
<path d="M146.017 10.3532C146.522 10.3013 147.825 10.4089 148.338 10.5321C158.31 12.9282 157.118 23.6163 146.919 24.71C144.287 24.75 141.974 24.1881 139.906 22.4543C137.144 20.1493 136.657 16.1892 139.081 13.4378C140.978 11.2841 143.275 10.565 146.017 10.3532ZM147.273 22.0091C148.861 21.7237 150.258 21.1424 151.215 19.7583C151.811 18.9113 152.042 17.8594 151.855 16.8401C151.342 14.0401 148.187 12.7652 145.612 13.0314C143.946 13.3389 142.508 13.8274 141.489 15.3115C140.895 16.1697 140.668 17.2304 140.859 18.2573C141.391 21.0987 144.669 22.3646 147.273 22.0091Z" fill="#909090"/>
<path d="M93.2451 10.4929L96.6961 10.4883L100.326 20.0899C101.634 17.0155 102.881 13.6173 104.143 10.4885L106.497 10.4895C107.543 13.4411 109.16 17.1248 110.358 20.0898C111.383 16.9939 112.713 13.598 113.817 10.4891L116.839 10.4911L115.405 14.2227L111.293 24.8733L109.001 24.8706C108.667 23.8752 108.056 22.4591 107.653 21.4434L105.077 14.9921L101.092 24.8725L98.7697 24.8694C97.3195 21.3097 96.0173 17.6659 94.6018 14.0895C94.1334 12.9047 93.6702 11.6937 93.2451 10.4929Z" fill="#909090"/>
<path d="M73.9109 10.493C76.6405 10.4569 79.3864 10.4969 82.1189 10.4837C83.8555 10.4754 85.6261 10.4108 87.3489 10.6048C89.6034 10.9133 89.4224 12.953 89.4692 14.6036C89.6034 19.361 88.8614 19.4736 84.3432 19.4415C86.4851 21.2562 88.7843 23.0814 90.9644 24.869L86.1504 24.8708L81.3741 20.4078L80.3572 19.4447L78.865 19.438L78.8628 16.9773C81.0321 16.9876 83.2162 17.0608 85.3742 16.8922C86.587 16.7974 86.2921 13.7964 85.9265 13.3034C85.2215 12.7957 78.5973 12.9879 77.2336 12.9919L77.2311 24.8764L73.9189 24.8682C73.8461 20.1486 73.9127 15.228 73.9109 10.493Z" fill="#909090"/>
<path d="M157.394 10.4922L163.276 10.4816C166.527 10.4778 170.502 10.1292 172.99 12.6183C175.598 15.1942 175.379 20.2926 172.842 22.8327C170.335 25.3439 165.738 24.8724 162.412 24.8685L162.406 22.1277C164.144 22.1288 166.165 22.217 167.854 21.9013C170.255 21.4342 171.396 19.9737 171.372 17.5386C171.329 12.8819 167.783 13.0821 164.362 13.0889L160.74 13.1003L160.751 24.8732L157.393 24.8713L157.394 10.4922Z" fill="#909090"/>
<path d="M35.0596 10.4903C39.8712 10.4389 44.7826 10.4878 49.6018 10.4871L49.6029 13.0148C48.2885 13.0148 38.6554 12.9356 38.4391 13.0952L38.4233 13.5037L38.4234 24.8707L35.0611 24.8704L35.0596 10.4903Z" fill="#909090"/>
<path d="M40.0794 16.7754L47.369 16.7773L47.3698 19.41C47.1564 19.4485 45.5256 19.4382 45.2399 19.4388L40.0752 19.4322L40.0794 16.7754Z" fill="#909090"/>
<path d="M16.104 0H16.1616C16.5894 0.991287 18.6115 4.23365 19.2244 5.26589C25.5108 7.29516 28.8878 12.8639 27.5172 19.3868C28.4468 20.955 29.647 23.1481 30.6126 24.6154L24.6669 24.6158C22.9204 26.3878 21.2579 27.3915 18.8064 28.0036C18.2173 28.1506 17.3065 28.228 16.8451 28.3522H15.4367C15.1455 28.2752 14.1816 28.1662 13.7744 28.0831C12.0332 27.7276 10.765 27.1429 9.29417 26.1704C8.69012 25.7709 7.83886 24.8237 7.46352 24.6164L7.44866 24.6083C5.5602 24.6533 3.50585 24.6143 1.60352 24.6167C2.64209 22.9243 3.66987 21.1191 4.68752 19.4036C3.39342 12.7307 6.61618 7.37614 13.0267 5.25118C13.8589 3.68069 15.1673 1.5258 16.104 0ZM10.8057 26.6332C12.4104 27.4225 14.1177 27.9416 15.9223 27.9311L15.9271 26.1079C13.7221 26.0581 12.1964 25.8651 10.0834 25.198C10.3206 25.7255 10.4995 26.1363 10.8057 26.6332ZM23.9292 13.2404C24.2376 13.0191 24.6511 12.6531 24.9524 12.4018C24.1686 11.3097 22.4531 9.3121 21.2523 8.69572C21.8069 9.68822 23.2929 12.332 23.9292 13.2404ZM11.0393 8.58291C9.57685 9.63793 8.30049 10.9301 7.26278 12.406C7.55214 12.651 8.01953 13.0709 8.31473 13.2774C8.96959 11.9542 10.258 9.91183 11.0393 8.58291ZM5.11941 15.6324C5.50531 14.6654 6.13287 13.257 6.78646 12.4324C6.4897 12.0747 6.27743 11.8023 6.01418 11.4198C5.57233 12.2909 4.53701 15.2029 4.84292 16.0955C5.00266 16.0258 4.96447 16.0321 5.05787 15.8591L4.92802 15.8234L5.10385 15.7663L5.11941 15.6324ZM12.2153 6.58246C11.5865 6.79386 11.1529 6.94582 10.5449 7.22176C10.7274 7.44595 10.9943 7.84695 11.2544 7.90504C11.4599 7.85646 11.5082 7.76989 11.6378 7.60516L12.2153 6.58246ZM21.3158 8.17695C22.3867 9.01262 23.3075 9.78897 24.1962 10.8244C24.366 11.0222 25.1456 11.9964 25.2825 12.0491L25.9877 11.0085C25.0075 9.45134 23.7746 8.06061 21.9874 7.39007C21.7416 7.72297 21.6172 7.89499 21.3158 8.17695ZM26.1842 11.4193C25.9149 11.827 25.7578 12.0658 25.4303 12.425C26.179 13.5467 26.7712 14.6492 27.199 15.9355L27.3337 16.1813C27.8551 15.7315 26.5955 12.1123 26.1842 11.4193ZM12.5306 6.09949L12.6709 5.74894C12.3562 5.87259 10.6953 6.51971 10.559 6.74295C11.0279 6.60051 12.1569 6.17296 12.5306 6.09949ZM22.6195 25.0322C22.4724 25.3676 22.3284 25.6864 22.2079 26.0329L22.2509 26.1075L22.4638 25.9793C22.8079 25.7324 23.8838 25.032 23.9602 24.6642C23.7794 24.5973 23.7377 24.6024 23.5501 24.6249L22.6195 25.0322ZM16.3006 25.7403C17.8199 25.6883 21.0466 25.3969 22.3874 24.6364C20.459 24.5641 18.2539 24.6145 16.3052 24.6142L16.3006 25.7403ZM26.5595 17.7409L27.2262 18.9062C27.3706 18.1 27.3719 17.9228 27.1938 17.116L26.5595 17.7409ZM9.60326 25.0485C9.05608 24.7979 8.6793 24.5784 8.06291 24.6C8.73271 25.2191 9.29123 25.7076 10.0765 26.191L9.60326 25.0485ZM15.9238 25.7455L15.9269 24.6169C13.9847 24.613 11.7502 24.5566 9.83087 24.6414C11.1739 25.402 14.3709 25.6963 15.9238 25.7455ZM4.98556 18.8852L5.6612 17.7799C5.40744 17.5309 5.35811 17.3943 5.05329 17.3431C4.73182 17.6734 4.8941 18.4555 4.98556 18.8852ZM19.9866 6.57733L20.582 7.60482C20.7679 7.81897 20.7027 7.80064 20.9529 7.88659C21.2336 7.80997 21.4663 7.45529 21.6593 7.21797C21.0874 6.952 20.5797 6.78184 19.9866 6.57733ZM6.23222 11.0109C6.41772 11.3057 6.70461 11.8067 6.95249 12.0201L7.08597 11.9742C8.31766 10.3419 9.25305 9.42368 10.8923 8.17312C10.7113 7.97109 10.3059 7.45029 10.076 7.43077C8.30375 8.46414 7.25616 9.12794 6.23222 11.0109ZM27.0316 16.6597C26.5865 15.1639 25.977 14.0493 25.179 12.7294C24.8151 13.0415 24.4824 13.2968 24.0986 13.5843C24.697 14.5803 25.8471 16.3941 26.3349 17.3965C26.5205 17.264 26.8632 16.8514 27.0316 16.6597ZM21.9425 25.2317C20.0327 25.8526 18.3062 26.0784 16.2951 26.1135C16.2931 26.436 16.2545 27.6847 16.3485 27.9027L16.4445 27.9398C18.2195 27.827 19.8758 27.4733 21.4488 26.5986C21.6014 26.3011 22.0076 25.5672 22.0587 25.2798L21.9425 25.2317ZM7.03442 12.7326C6.18305 14.1128 5.65463 15.1312 5.18222 16.6898C5.38343 16.9183 5.64477 17.2335 5.86307 17.4337C6.41662 16.3387 7.45529 14.6805 8.09623 13.5785C7.74025 13.2991 7.3863 13.0171 7.03442 12.7326Z" fill="#909090"/>
<path d="M16.1017 0H16.1593C16.5871 0.991287 18.6091 4.23365 19.2221 5.26589C16.8828 4.73013 15.3624 4.75731 13.0244 5.25118C13.8566 3.68069 15.165 1.5258 16.1017 0Z" fill="#909090"/>
<path d="M4.68752 19.4043C5.14634 20.9032 5.66 22.174 6.60602 23.4386C6.74843 23.6289 7.43356 24.4931 7.44866 24.6091C5.5602 24.6541 3.50584 24.615 1.60352 24.6175C2.64209 22.925 3.66987 21.1198 4.68752 19.4043Z" fill="#909090"/>
<path d="M27.5144 19.3867C28.444 20.9548 29.6441 23.148 30.6097 24.6152L24.6641 24.6157C26.216 22.9051 26.8569 21.5548 27.5144 19.3867Z" fill="#909090"/>
<path d="M10.128 14.6953C12.4637 15.4766 13.4439 15.7098 15.9269 15.7918L15.9267 20.8052L14.9091 20.7405C12.5197 20.5669 11.2436 20.2767 9.0127 19.4163C9.02239 17.7074 9.45831 16.2423 10.128 14.6953Z" fill="#909090"/>
<path d="M21.88 14.7441C21.9333 14.7452 22.0436 14.7777 22.1008 14.7922C22.7984 15.8767 23.1222 18.1129 23.2299 19.3871C21.3098 20.2029 19.8308 20.5139 17.7697 20.7025L16.3013 20.8056L16.292 15.7936C18.2032 15.7905 20.0975 15.4347 21.88 14.7441Z" fill="#909090"/>
<path d="M16.2959 21.1696C18.7359 21.1079 20.9754 20.7579 23.2379 19.7891C23.1787 21.9372 22.99 22.5997 22.3873 24.6371C20.4589 24.5648 18.2538 24.6152 16.3051 24.6149L16.2959 21.1696Z" fill="#909090"/>
<path d="M9.00098 19.8301C11.2762 20.7138 13.477 21.1648 15.9299 21.1663L15.926 24.6174C13.9838 24.6135 11.7493 24.5571 9.82996 24.642C9.24807 22.8094 9.00894 21.7379 9.00098 19.8301Z" fill="#909090"/>
<path d="M13.188 9.4082C14.2322 9.69337 14.8571 9.77808 15.9292 9.81363L15.9277 15.4338C15.0012 15.3701 14.197 15.3097 13.279 15.1812C12.1124 14.9609 11.4158 14.7504 10.3145 14.3215C10.938 12.7817 12.2455 10.7773 13.188 9.4082Z" fill="#909090"/>
<path d="M18.7904 9.47242L18.9898 9.45898C19.7302 10.0688 21.4561 13.3559 21.8972 14.3276C20.8771 14.7393 20.1947 14.9321 19.1213 15.1437C18.1489 15.3007 17.2758 15.3598 16.2976 15.4312L16.292 9.81135C17.2475 9.80597 17.8782 9.68363 18.7904 9.47242Z" fill="#909090"/>
<path d="M26.5635 17.7422L27.2303 18.9075C26.9756 20.062 26.6339 21.0022 26.0862 22.0378C25.3279 23.4718 24.214 23.8974 22.8281 24.525C23.4421 22.7997 23.5611 21.4353 23.6358 19.6339C24.828 19.0572 25.5523 18.5752 26.5635 17.7422Z" fill="#909090"/>
<path d="M5.66099 17.7793C6.79428 18.7136 7.29453 18.9757 8.616 19.6751C8.64221 21.4907 8.76973 22.7952 9.40305 24.5325C7.26382 23.6208 6.5403 23.2032 5.59977 20.9128C5.36888 20.3505 5.09989 19.4804 4.98535 18.8846L5.66099 17.7793Z" fill="#909090"/>
<path d="M8.0935 13.5781C8.69848 13.9407 9.15327 14.2159 9.79629 14.5094C9.10107 16.0737 8.68939 17.5141 8.62632 19.2347C7.52893 18.6951 6.79506 18.2423 5.86035 17.4333C6.4139 16.3383 7.45257 14.6801 8.0935 13.5781Z" fill="#909090"/>
<path d="M24.099 13.584C24.6974 14.58 25.8475 16.3937 26.3353 17.3962C25.6071 18.1567 24.5007 18.7634 23.5693 19.2258C23.5585 17.5952 23.0814 15.9917 22.4121 14.5175C23.0773 14.2031 23.4725 13.9729 24.099 13.584Z" fill="#909090"/>
<path d="M11.041 8.58251L11.222 8.46484C11.7844 8.6987 12.2529 9.04352 12.8345 9.27182C11.6548 10.9474 10.8322 12.3138 9.9509 14.1731C9.34901 13.8722 8.89309 13.6239 8.31641 13.277C8.97127 11.9538 10.2597 9.91143 11.041 8.58251Z" fill="#909090"/>
<path d="M19.3779 9.27142C19.8685 9.07868 20.3241 8.76966 20.8031 8.54738C21.0698 8.42365 21.0837 8.51349 21.2536 8.69571C21.8082 9.68821 23.2942 12.332 23.9305 13.2404C23.4512 13.5723 22.7978 13.8999 22.2749 14.1805C21.3452 12.2834 20.6205 10.9926 19.3779 9.27142Z" fill="#909090"/>
<path d="M15.8928 6.30664C15.9637 6.65546 15.9291 8.96215 15.9272 9.44691C15.1461 9.44752 14.5301 9.33949 13.783 9.16105C13.6635 9.13443 13.6481 9.11275 13.5664 9.01911C13.795 8.4058 15.3691 6.80706 15.8928 6.30664Z" fill="#909090"/>
<path d="M16.292 6.37305C16.7728 6.60064 18.3457 8.46273 18.6571 8.99023L18.5755 9.13035C17.7351 9.35456 17.1419 9.41179 16.2934 9.45002L16.292 6.37305Z" fill="#909090"/>
<path d="M16.8857 6.29688C17.4215 6.39799 20.4308 7.79776 20.5266 8.24569L20.245 8.44835C19.921 8.6352 19.5034 8.80102 19.1537 8.95006C18.3805 7.97678 17.7212 7.21123 16.8857 6.29688Z" fill="#909090"/>
<path d="M15.1095 6.32227C15.1375 6.32957 15.1748 6.37829 15.1986 6.40379C14.4779 7.29163 13.7635 8.00479 13.07 8.94703L12.3095 8.63003L11.5605 8.20494C12.7794 7.39595 13.7743 6.89519 15.1095 6.32227Z" fill="#909090"/>
<path d="M12.2123 6.58166C12.6278 6.46663 13.8099 6.06778 14.1435 6.20366C13.9258 6.48244 11.8537 7.57523 11.6348 7.60436L12.2123 6.58166Z" fill="#909090"/>
<path d="M17.6055 6.03711C18.3876 6.16412 19.219 6.36871 19.9828 6.57741L20.5782 7.60489C20.3953 7.58147 17.9294 6.25996 17.6055 6.03711Z" fill="#909090"/>
<path d="M12.5311 6.10054C12.1575 6.17402 11.0285 6.60157 10.5596 6.74401C10.6958 6.52076 12.3568 5.87365 12.6715 5.75L12.5311 6.10054Z" fill="#909090"/>
<path d="M12.6706 5.7499C13.3139 5.55863 14.0988 5.63694 14.7766 5.67919C14.0326 5.7991 13.2573 5.9077 12.5303 6.10044L12.6706 5.7499Z" fill="#909090"/>
<path d="M17.7754 5.68316C18.4755 5.61877 19.285 5.41159 19.7196 6.07625C19.1896 5.98339 18.2556 5.84721 17.7754 5.68316Z" fill="#909090"/>
<path d="M15.6569 5.23242L15.8578 5.2645L15.913 5.36993C15.6916 5.52103 15.4705 5.46167 15.208 5.42551L14.8799 5.34577L14.9088 5.30606L15.6569 5.23242Z" fill="#909090"/>
</g>
<defs>
<clipPath id="clip0_186_4054">
<rect width="177.312" height="28.3522" fill="white"/>
</clipPath>
</defs>
</svg>
