<?xml version="1.0" encoding="UTF-8"?>
<svg id="Layer_2" data-name="Layer 2" xmlns="http://www.w3.org/2000/svg" viewBox="0 0 178.68 36">
  <defs>
    <style>
      .cls-1 {
        fill: #ff814d;
      }

      .cls-1, .cls-2 {
        stroke-width: 0px;
      }

      .cls-2 {
        fill: #fff;
      }
    </style>
  </defs>
  <g id="Layer_1-2" data-name="Layer 1">
    <g>
      <polygon class="cls-1" points="178.68 0 178.68 36 143.45 36 155.26 12.04 149.31 12.04 143.64 25.15 137.79 12.04 131.77 12.04 140.67 31.07 137.96 36 102.68 36 102.68 0 178.68 0"/>
      <g>
        <g>
          <path class="cls-2" d="m51.44,12.04v2.32c-.79-.87-1.75-1.56-2.87-2.08-1.13-.51-2.25-.77-3.36-.77-1.76,0-3.38.44-4.84,1.3-1.47.87-2.63,2.12-3.48,3.75-.86,1.63-1.28,3.59-1.28,5.9s.42,4.23,1.28,5.84c.85,1.62,1.98,2.84,3.38,3.66,1.39.83,2.92,1.25,4.57,1.25,1.52,0,2.85-.41,3.97-1.21.42-.3.81-.62,1.16-.96.55-.53,1.47-.12,1.47.65v.02c0,.49.39.88.88.88h4.29V12.04h-5.17Zm-.76,13.19c-.5.89-1.15,1.58-1.95,2.07-.8.49-1.66.74-2.58.74-1.01,0-1.9-.25-2.67-.76-.77-.5-1.38-1.18-1.81-2.03-.44-.86-.65-1.79-.65-2.79s.21-1.99.65-2.87c.43-.88,1.04-1.6,1.81-2.16.77-.55,1.69-.83,2.75-.83s1.97.23,2.83.69c.85.46,1.63,1.07,2.34,1.83l.04,2.93c0,1.22-.25,2.28-.76,3.18Z"/>
          <path class="cls-2" d="m75.41,23.25c-.76-.9-1.94-1.59-3.54-2.05l-2.32-.78c-.9-.27-1.51-.58-1.85-.93-.34-.35-.51-.76-.51-1.22,0-.6.28-1.11.85-1.53s1.35-.63,2.32-.63c1.03,0,2.02.2,2.95.59.94.39,1.72.81,2.35,1.24v-4.52c-.57-.54-1.41-.99-2.51-1.36-1.1-.37-2.28-.55-3.56-.55-1.52,0-2.88.28-4.09.84-1.21.55-2.15,1.31-2.83,2.27-.68.97-1.02,2.1-1.02,3.4s.31,2.43.92,3.38c.61.95,1.69,1.7,3.24,2.24l2.56.86c.87.32,1.54.63,2.02.91.47.29.71.69.71,1.2,0,.65-.28,1.17-.84,1.55-.55.38-1.35.57-2.38.57-.65,0-1.37-.1-2.16-.31-.78-.2-1.55-.47-2.3-.79-.74-.33-1.37-.67-1.89-1.02v4.52c.49.33,1.11.65,1.85.98.75.32,1.57.59,2.47.79.89.2,1.8.31,2.72.31,1.47,0,2.81-.29,4.01-.86,1.21-.57,2.17-1.36,2.89-2.36s1.08-2.13,1.08-3.38c0-1.33-.38-2.45-1.14-3.36Z"/>
          <path class="cls-2" d="m99.71,19.98v12.61h-5.17l-.04-11.88c0-1.41-.34-2.45-1.02-3.11-.68-.67-1.59-1-2.72-1-.93,0-1.78.3-2.57.89-.79.6-1.48,1.29-2.07,2.08v13.02s-5.21,0-5.21,0V3.29h5.21v11.68c.43-.57.95-1.12,1.56-1.65.61-.53,1.31-.96,2.1-1.3.79-.34,1.64-.51,2.56-.51,1.41,0,2.67.31,3.79.94,1.11.62,1.99,1.56,2.62,2.83.64,1.26.96,2.82.96,4.7Z"/>
          <path class="cls-2" d="m128.33,16.56c-.85-1.63-2.01-2.88-3.46-3.75-1.45-.86-3.06-1.3-4.82-1.3-1.14,0-2.27.26-3.4.77-1.13.52-2.07,1.21-2.83,2.08V3.29s-5.21,0-5.21,0v29.3h4.33c.49,0,.88-.39.88-.88h0c0-.76.92-1.18,1.47-.65.34.33.73.65,1.14.94,1.14.8,2.46,1.21,3.99,1.21,1.65,0,3.18-.42,4.57-1.25,1.4-.82,2.52-2.04,3.36-3.66.84-1.61,1.26-3.56,1.26-5.84s-.42-4.27-1.28-5.9Zm-4.76,8.67c-.42.84-1.01,1.51-1.77,2.01-.76.51-1.66.76-2.69.76-.89,0-1.75-.24-2.56-.72-.82-.47-1.47-1.16-1.98-2.05-.5-.9-.75-1.96-.75-3.18v-2.93c.76-.76,1.56-1.37,2.4-1.83.84-.46,1.77-.69,2.77-.69,1.09,0,2.02.28,2.79.83.77.56,1.37,1.28,1.79,2.16s.63,1.84.63,2.87-.21,1.93-.63,2.77Z"/>
          <polygon class="cls-2" points="155.26 12.04 143.45 36 137.96 36 140.67 31.07 131.77 12.04 137.79 12.04 143.64 25.15 149.31 12.04 155.26 12.04"/>
          <path class="cls-2" d="m170.93,27.83c-.6.25-1.31.37-2.12.37-.92,0-1.62-.27-2.1-.79-.47-.53-.71-1.26-.71-2.18v-8.88h6.19v-4.31h-6.19v-5.58h-3.09s0,0,0,0c-.63,1.88-1.37,3.44-2.24,4.69-.87,1.24-1.97,2.1-3.3,2.56,0,0,0,0,0,0v2.64s3.42,0,3.42,0v10.22c0,1.36.29,2.53.88,3.52.58.99,1.37,1.76,2.36,2.3.99.54,2.09.82,3.31.82s2.24-.17,3.12-.49c.88-.33,1.56-.75,2.05-1.26v-4.4c-.46.27-.99.53-1.58.77Z"/>
        </g>
        <g>
          <polygon class="cls-1" points="14.42 0 13.36 11.67 7.7 11.67 8.76 0 14.42 0"/>
          <polygon class="cls-2" points="32.42 0 31.18 13.67 30.66 19.33 29.42 33 23.76 33 25 19.33 12.66 19.33 11.42 33 5.76 33 7 19.33 0 19.33 .52 13.67 25.52 13.67 26.76 0 32.42 0"/>
        </g>
      </g>
    </g>
  </g>
</svg>