<svg width="168" height="43" viewBox="0 0 168 43" fill="none" xmlns="http://www.w3.org/2000/svg">
<path d="M80.1972 24.2681C80.1753 22.1225 80.1673 19.9768 80.1732 17.8311C80.1722 16.626 80.1181 15.1368 80.2717 13.9668C80.3567 13.3184 80.8662 12.1252 81.3141 11.6746C82.1217 10.8618 83.2609 10.2799 84.4189 10.2607C88.4339 10.1941 92.476 10.2514 96.4894 10.2739L115.242 10.2715C120.299 10.2444 125.355 10.2484 130.412 10.2837C132.776 10.2908 135.179 10.2202 137.534 10.3409C139.566 10.4449 141.276 12.377 141.356 14.376C141.436 15.4493 141.428 16.4809 141.39 17.5555C141.401 18.9229 141.427 20.4893 141.301 21.84C140.981 22.2603 139.255 24.1028 138.811 24.0753C138.575 23.7965 138.593 20.2643 138.566 19.5379C138.408 15.2197 129.132 17.5129 127.984 16.6557L127.981 15.6735C128.003 15.2958 127.985 14.8691 127.977 14.4872C127.439 14.5876 126.565 15.1576 126.184 15.5364C125.961 15.3479 125.62 15.0763 125.434 14.8681C125.437 15.4676 125.411 16.4886 125.461 17.0545L125.454 17.2232L125.451 17.6988C125.449 18.0903 125.403 20.8837 125.488 21.0133C125.751 20.6605 126.015 20.3094 126.282 19.9602C126.832 20.393 127.191 20.7048 127.824 21.0031L127.998 21.1455C127.992 20.4698 127.973 19.7582 128.021 19.0873C129.215 19.0319 135.028 18.8535 135.716 19.4559C135.93 19.6435 135.99 19.9019 136.001 20.1732C136.048 21.3656 136.021 22.5724 136.025 23.7661C136.029 24.5488 136.103 25.4133 135.985 26.187C135.943 26.4647 135.877 26.7164 135.68 26.9257C135.257 27.3748 131.264 30.2467 130.749 30.4576C130.346 30.6225 129.696 30.6019 129.261 30.6112C126.02 30.6799 122.765 30.6062 119.522 30.6064L99.5518 30.607L89.3047 30.6075C87.5951 30.6097 85.6408 30.7123 83.9671 30.5567C80.7649 30.2592 79.9075 26.8869 80.1972 24.2681ZM109.5 26.5982C109.475 25.8493 109.444 25.0998 109.456 24.3506C106.451 24.2519 103.427 24.4849 100.448 24.0992C100.03 24.045 98.9029 23.4038 99.3612 22.9622C102.609 22.8644 106.46 22.8941 109.742 22.9263L109.701 21.6098C109.677 20.6123 109.9 18.8799 109.152 18.1261C107.613 16.5745 105.249 16.7883 103.249 16.7783C101.056 16.7674 98.0943 16.7021 96.7415 18.7925C96.4804 19.1975 96.4681 19.6805 96.4468 20.1466C96.4755 20.993 96.4452 21.8505 96.4149 22.706C96.2202 28.2456 104.966 26.1603 108.368 26.6003C108.576 26.6273 109.157 26.6135 109.358 26.6053C109.405 26.6034 109.453 26.601 109.5 26.5982ZM124.139 26.6009V24.3105C122.312 24.1787 114.491 24.6502 113.65 23.8244C113.367 23.197 113.559 20.4734 113.596 19.6389C113.603 19.4584 113.881 19.3304 114.041 19.2312C114.925 19.0325 116.791 19.1075 117.787 19.1024C119.893 19.0918 122.005 19.1449 124.114 19.0779C124.111 18.3593 124.09 17.5545 124.136 16.8446C122.457 16.7448 120.673 16.7969 118.99 16.7889C117.301 16.7808 115.403 16.6972 113.759 16.9621C112.095 17.2305 110.91 18.0962 110.915 19.8671C110.855 21.0466 110.969 22.3332 110.887 23.474C110.916 27.213 115.665 26.6083 118.252 26.5992L124.139 26.6009ZM125.44 22.6973L125.462 26.5905C125.79 26.6008 126.26 26.6468 126.554 26.5366C126.652 26.406 126.646 26.4527 126.654 26.3051C126.354 24.6681 126.759 23.9344 125.44 22.6973ZM82.4196 14.2209C82.4286 14.8402 82.4073 15.7301 82.4498 16.314L82.5791 16.5659C83.3059 16.5181 86.8733 16.4425 87.5763 16.5354L87.7539 16.6236C87.8521 16.9606 87.8275 18.4143 87.8275 18.833L87.8193 23.7296C87.8177 24.5444 87.7809 25.8782 87.884 26.6405C88.8088 26.6139 89.6263 26.5953 90.5536 26.6245L90.5372 20.1346C90.5364 19.0471 90.4922 17.5374 90.5732 16.4889C92.332 16.53 94.0915 16.5401 95.8502 16.5191L95.9108 16.4945C96.0917 16.2172 96.0213 15.5642 96.0106 15.1845C96.0033 14.8986 96.0368 14.54 96.0573 14.2482C91.5659 14.1683 86.9322 14.2445 82.4196 14.2209Z" fill="#909090"/>
<path d="M99.1791 20.804C98.8926 20.6064 99.0972 20.1208 99.1103 19.8474C99.1177 19.6904 99.2454 19.38 99.3902 19.343C100.826 18.9758 104.93 18.9081 106.267 19.1664C107.045 19.2334 107.427 20.2136 107.086 20.7429C106.873 20.8755 99.4803 20.9261 99.1791 20.804Z" fill="#909090"/>
<path d="M101.494 19.4907C102.239 19.5178 103.839 19.5483 104.561 19.4983C105.104 19.6009 106.214 19.5242 106.575 20.0122L106.51 20.153C105.682 20.5576 103.547 20.3528 102.531 20.3617C102.061 20.3659 99.9052 20.4168 99.6138 20.3249C99.5042 20.0703 99.5214 20.1761 99.577 19.879C99.8978 19.5534 100.933 19.586 101.494 19.4907Z" fill="#909090"/>
<path d="M80.203 24.2681C80.181 22.1225 80.173 19.9768 80.179 17.8311C80.178 16.626 80.1239 15.1368 80.2774 13.9668C80.3625 13.3184 80.8719 12.1252 81.3198 11.6746C82.1274 10.8618 83.2666 10.2799 84.4246 10.2607C88.4397 10.1941 92.4818 10.2514 96.4952 10.2739L115.248 10.2715C120.305 10.2444 125.361 10.2484 130.418 10.2837C132.782 10.2908 135.185 10.2202 137.54 10.3409C139.571 10.4449 141.282 12.377 141.362 14.376C141.442 15.4493 141.434 16.4809 141.396 17.5555C141.407 18.9229 141.433 20.4893 141.306 21.84C140.986 22.2603 139.261 24.1028 138.817 24.0753C138.581 23.7965 138.598 20.2643 138.571 19.5379C138.414 15.2197 129.138 17.5129 127.989 16.6557L127.987 15.6735C128.008 15.2958 127.99 14.8691 127.983 14.4872C127.445 14.5876 126.571 15.1576 126.19 15.5364C125.966 15.3479 125.626 15.0763 125.439 14.8681C125.443 15.4676 125.417 16.4886 125.467 17.0545L125.46 17.2232L125.457 17.6988C125.455 18.0903 125.409 20.8837 125.494 21.0133L125.414 21.2407C124.98 21.0272 125.056 21.0675 124.511 21.045C123.833 21.004 121.357 21.3321 120.509 21.3829C118.347 21.512 116.178 21.6734 114.007 21.7046C114 21.0871 114.014 20.4481 114.019 19.8288C114.054 19.6351 114.046 19.4289 114.046 19.2312C114.93 19.0325 116.797 19.1075 117.793 19.1024C119.899 19.0918 122.011 19.1449 124.12 19.0779C124.117 18.3593 124.096 17.5545 124.141 16.8446C122.463 16.7448 120.679 16.7969 118.995 16.7889C117.307 16.7808 115.408 16.6972 113.765 16.9621C112.1 17.2305 110.916 18.0962 110.921 19.8671C110.86 21.0466 110.975 22.3332 110.892 23.474C110.82 23.3114 110.797 23.148 110.784 22.9719C110.72 22.0918 110.608 18.72 111.162 18.0885C111.192 18.0547 111.186 17.994 111.191 17.9492C110.441 18.4382 110.48 17.8305 109.834 17.8115L109.752 18.0896L109.575 18.0675C109.429 18.2922 109.57 18.5077 109.68 18.8589C109.907 19.5823 109.976 20.8297 109.851 21.554L109.707 21.6098C109.683 20.6123 109.905 18.8799 109.157 18.1261C107.619 16.5745 105.254 16.7883 103.255 16.7783C101.062 16.7674 98.1 16.7021 96.7472 18.7925C96.4862 19.1975 96.4739 19.6805 96.4526 20.1466L96.3855 20.2505C96.1923 20.0155 96.4076 19.0557 96.5696 18.7982L96.5033 18.6956C95.9509 19.015 96.1285 19.995 95.9476 20.6375C95.5458 20.9505 91.5725 20.3749 91.1289 20.0894C91.0733 19.7353 90.84 18.5605 91.16 18.3405L91.1838 18.6221C91.4121 18.6809 91.6429 18.519 91.8614 18.4053C92.485 18.842 93.4221 18.4906 94.1496 18.5203L94.3935 18.2927C94.752 18.3218 95.0842 18.2725 95.4108 18.1549C95.2528 17.8548 94.7274 18.107 94.4803 17.8157C94.662 17.4935 95.5753 18.0091 95.856 16.5191L95.9165 16.4945C96.0974 16.2172 96.027 15.5642 96.0164 15.1845C96.009 14.8986 96.0426 14.54 96.063 14.2482C91.5717 14.1683 86.9379 14.2445 82.4253 14.2209C82.4343 14.8402 82.413 15.7301 82.4556 16.314L82.3484 16.478L82.2068 16.4678C81.9956 16.2614 81.9294 15.974 81.8379 15.6921C81.8328 16.1526 81.8165 16.6568 81.8332 17.1136C82.44 17.1482 86.888 17.1528 87.073 17.2865C87.073 17.3871 87.0869 17.4721 87.0321 17.5505L86.9625 17.314L86.8676 17.329C86.8561 17.5847 86.8676 17.7106 86.7055 17.9185C86.2873 18.052 84.6513 18.1536 84.0686 18.2705C83.229 18.439 81.9425 17.4998 80.8244 17.6912C80.6961 17.4626 80.661 16.4629 80.6384 16.1378C80.5473 16.6702 80.495 17.2084 80.4818 17.7483C80.4573 18.495 80.5142 23.725 80.3624 23.9493L80.3407 23.8034L80.203 24.2681Z" fill="#909090"/>
<path d="M80.8226 17.6898C80.8952 17.5325 80.8953 17.4812 80.888 17.3075C80.8343 15.9732 80.5723 14.3692 81.041 13.0983C81.4988 11.8569 82.9637 10.8769 84.2715 10.8276C85.7569 10.7714 87.2619 10.7941 88.753 10.8006L96.0547 10.8138L123.279 10.9343C127.793 10.933 132.305 10.7237 136.814 10.8007C138.592 10.8311 139.713 11.4475 140.501 13.0349C140.812 13.6613 140.961 16.6814 140.728 17.2684C140.653 16.8609 140.806 15.2797 140.549 15.1802C138.63 14.4379 136.612 13.4535 134.663 12.8153C132.653 12.2072 130.169 12.2382 128.195 11.5718C125.712 10.7336 123.752 11.171 121.256 11.4073L114.286 12.0498C107.752 12.6245 101.244 12.9879 94.7011 13.6524L94.7052 13.7033C95.143 13.6811 96.2863 13.5593 96.6235 13.7905C96.6677 14.011 96.6718 14.0479 96.6162 14.2639L96.5024 13.7999C96.3363 13.7117 83.8034 13.7797 82.4677 13.7757C82.3409 13.7765 82.0905 13.7491 82.0176 13.8318C81.7435 14.1416 81.7715 15.3324 81.8361 15.6908C81.831 16.1512 81.8147 16.6554 81.8314 17.1122C82.4383 17.1468 86.8863 17.1514 87.0712 17.2851C87.0712 17.3857 87.0851 17.4707 87.0303 17.5491L86.9607 17.3127L86.8658 17.3276C86.8543 17.5833 86.8658 17.7092 86.7038 17.9172C86.2856 18.0506 84.6496 18.1522 84.0669 18.2692C83.2272 18.4376 81.9407 17.4984 80.8226 17.6898Z" fill="#909090"/>
<path d="M114.011 19.8291C117.367 19.4081 120.746 19.6581 124.122 19.5759C124.342 19.5705 124.577 19.5657 124.795 19.5474C124.873 19.9486 125.022 20.4721 124.897 20.8462C124.723 21.0232 124.776 20.9707 124.503 21.0452C123.825 21.0043 121.349 21.3324 120.501 21.3831C118.339 21.5123 116.17 21.6737 113.999 21.7049C113.992 21.0874 114.006 20.4484 114.011 19.8291Z" fill="#909090"/>
<path d="M81.8342 15.6897C81.7697 15.3314 81.7416 14.1406 82.0158 13.8308C82.0886 13.7481 82.339 13.7755 82.4659 13.7747L82.47 13.8211C83.6018 13.8874 85.0111 13.8497 86.1593 13.8495L92.6246 13.8464C93.4397 13.8457 95.5872 13.7865 96.2648 13.8864C96.3639 14.1495 96.2059 14.9695 96.0128 15.1821C96.0054 14.8962 96.039 14.5377 96.0594 14.2458C91.5681 14.1659 86.9343 14.2421 82.4217 14.2185C82.4307 14.8378 82.4094 15.7277 82.452 16.3116L82.3448 16.4756L82.2032 16.4654C81.992 16.259 81.9257 15.9717 81.8342 15.6897Z" fill="#909090"/>
<path d="M125.434 14.8658L125.403 14.4356C125.7 13.9767 127.581 14.0605 127.956 14.2724L127.978 14.4849C127.44 14.5853 126.566 15.1553 126.185 15.5341C125.961 15.3456 125.621 15.074 125.434 14.8658Z" fill="#909090"/>
<path d="M141.355 14.3745C141.435 15.4478 141.427 16.4794 141.389 17.5541C141.291 17.8212 141.286 18.3461 141.269 18.6497C141.148 17.7339 140.816 15.1342 141.355 14.3745Z" fill="#909090"/>
<path d="M125.49 21.0117C125.753 20.6589 126.017 20.3078 126.284 19.9585C126.834 20.3913 127.193 20.7032 127.826 21.0014L128 21.1438C128.022 22.9207 128.026 24.6979 128.011 26.4749L127.941 26.5512C127.539 26.6543 127.139 26.6462 126.738 26.5431L126.656 26.3034C126.356 24.6664 126.761 23.9327 125.442 22.6957C125.393 22.2737 125.41 21.6762 125.41 21.2391L125.49 21.0117Z" fill="#909090"/>
<path d="M127.826 21.002L128 21.1443C128.022 22.9212 128.025 24.6984 128.011 26.4754C127.535 25.5666 127.659 22.0743 127.826 21.002Z" fill="#909090"/>
<path d="M82.5786 16.5648C83.3054 16.517 86.8728 16.4414 87.5758 16.5342C87.1158 16.8905 82.8954 16.8845 82.5459 16.6717L82.5786 16.5648Z" fill="#909090"/>
<path d="M128.511 20.4432C128.272 20.4334 128.221 20.3638 128.09 20.2266C128.019 19.8812 128.016 20.0119 128.14 19.6776C128.37 19.4852 128.338 19.5383 128.667 19.4915C129.293 19.506 132.277 19.4069 132.553 19.6209C131.983 20.0352 129.362 20.2915 128.511 20.4432Z" fill="#909090"/>
<path d="M128.511 20.4453C128.272 20.4356 128.221 20.3659 128.09 20.2287C128.019 19.8833 128.016 20.014 128.14 19.6797C128.37 19.4873 128.338 19.5404 128.667 19.4937C128.377 19.8466 128.443 20.0064 128.511 20.4453Z" fill="#909090"/>
<path d="M126.598 8.13311C131.524 6.27825 136.416 4.63768 141.696 4.13275C142.696 4.03723 143.865 4.11794 144.822 4.06854C150.946 3.75219 156.777 6.81763 153.559 13.712C152.237 16.3649 150.193 19.0557 148.059 21.1204C146.987 22.1573 145.399 23.0768 144.277 24.1213C143.477 24.8659 142.244 25.5033 141.464 26.2322C141.181 27.6229 140.704 29.0899 139.455 29.9357C137.938 30.9642 135.968 30.3992 134.289 30.7522C132.43 31.6261 129.074 33.1352 127.134 34.0868C127.099 34.1436 127.059 34.2952 127.045 34.3496C126.824 35.2377 127.405 36.5282 126.545 37.1326C125.823 37.6412 122.48 37.7969 121.964 36.9266C121.561 36.2475 121.454 34.6217 121.789 33.8409C122.209 32.861 123.688 32.9572 124.593 32.9702C125.627 32.985 125.926 32.9676 126.881 33.4944C128.061 33.0778 129.943 31.8252 131.022 31.0991C136.567 27.3682 142.379 23.095 145.53 17.0408C147.228 13.7799 146.991 9.9087 143.263 8.31168C138.277 6.17625 131.835 7.33077 126.747 8.56984L126.598 8.13311ZM125.382 34.6944L125.117 34.3909C125.425 34.3181 125.631 34.3103 125.818 34.0522C125.336 33.6602 123.397 33.8353 122.727 33.9033L122.686 33.9077C122.671 34.415 122.561 36.0347 122.767 36.3899C123.321 36.8236 125.296 36.8007 125.878 36.4437C126.125 35.9983 126.224 34.9255 125.836 34.5266C125.621 34.5514 125.571 34.5877 125.382 34.6944Z" fill="#909090"/>
<path d="M125.384 34.6946C125.185 34.8396 123.612 35.4049 123.421 35.358C123.616 35.113 124.764 34.5788 125.12 34.3911L125.384 34.6946Z" fill="#909090"/>
<path d="M13.8619 14.1093C14.2352 14.0869 14.6904 14.0991 15.0702 14.0991C16.3273 14.9532 18.7786 18.4143 19.9539 19.7617C20.8913 20.8362 22.167 22.3787 23.0904 23.4992C24.6253 21.997 29.6484 14.7893 30.7619 14.2677C31.214 14.0559 31.7639 14.002 32.2363 14.1815C32.5428 14.2979 32.8046 14.5157 32.9399 14.8185C33.0769 15.1249 33.1278 15.4805 33.1483 15.8128C33.2143 16.8874 33.1276 17.9977 33.1261 19.0763C33.124 20.4209 33.3515 25.5797 33.0239 26.4277C32.7486 26.5777 30.8991 26.5018 30.4499 26.4946L30.4439 21.4652C30.4364 20.4506 30.4491 19.4202 30.4529 18.4042C29.2472 19.82 25.0641 25.8164 24.0302 26.3716C23.5783 26.6143 22.9379 26.6438 22.4527 26.4956C22.1156 26.3926 21.8337 26.158 21.5875 25.9134C20.6015 24.9335 19.7682 23.7174 18.9051 22.6257C17.8857 21.3363 16.6288 20.0009 15.8503 18.5582C15.3497 19.6085 15.5623 25.1086 15.5677 26.5553L12.9916 26.4918C12.7034 24.8961 12.8805 22.6466 12.8481 20.9533C12.8129 19.1051 12.7753 16.987 12.9972 15.1566C13.0675 14.577 13.351 14.3339 13.8619 14.1093Z" fill="#909090"/>
<path d="M69.4343 16.8157C70.2653 16.7698 71.1688 16.8136 71.9902 16.7962C75.0409 16.8156 78.4522 16.4365 78.4129 20.5697C78.379 24.1383 78.9105 26.2507 74.3355 26.5709C73.7719 26.6741 72.6273 26.6037 72.0289 26.6179C69.8741 26.6689 65.6508 26.7234 65.4448 23.7133C65.3799 22.7654 65.3086 20.2904 65.5132 19.4104C65.6005 19.0255 65.7719 18.6648 66.0152 18.3539C66.8095 17.3404 68.2107 16.9685 69.4343 16.8157ZM68.0092 23.6345C68.1908 23.7533 68.5891 24.0095 68.7831 24.0601C70.1863 24.4261 72.8341 24.3703 74.2522 24.2252C74.6474 24.1614 75.3245 24.0584 75.5515 23.7404C75.9739 23.1486 76.0103 19.7055 75.3941 19.4562C74.1564 18.9553 70.788 19.0585 69.449 19.1816C68.4078 19.4638 67.9631 19.7077 67.9503 20.9383C67.9411 21.8324 68.0059 22.7402 68.0092 23.6345Z" fill="#909090"/>
<path d="M38.452 16.8165C40.2828 16.725 42.4699 16.7183 44.2931 16.8677C47.7499 17.1509 47.9031 20.0951 47.495 22.801C46.9672 23.2271 38.4763 22.6354 36.9658 22.958L36.9544 23.106C37.2792 23.7069 37.8891 24.0717 38.5512 24.1599C40.0445 24.3591 41.5244 24.3269 43.0264 24.3228C43.8121 24.3264 46.5233 24.1936 47.0822 24.4065C47.3395 24.7676 47.2385 26.1088 47.2267 26.6169C46.076 26.6679 44.4896 26.6458 43.3414 26.6102C40.7529 26.53 37.6478 27.0155 35.4207 25.4564C34.0556 24.5008 34.2985 22.9267 34.2883 21.4826C34.1031 18.2742 35.351 17.2256 38.452 16.8165ZM36.9137 20.8866C38.9451 20.7484 41.6997 20.8201 43.7898 20.821L44.9944 20.8538L44.9416 19.5566C43.7396 18.7085 40.8939 19.1902 39.3946 19.0797C39.1184 19.0593 38.6285 19.0862 38.3397 19.1082C36.8767 19.2132 36.8363 19.5027 36.9137 20.8866Z" fill="#909090"/>
<path d="M50.1639 14.4375L52.6118 14.418C52.6413 15.2725 52.568 16.2064 52.7147 17.0439C53.9462 16.9607 55.345 16.9073 56.577 17.0068C56.6465 17.6574 56.6241 18.4483 56.6219 19.1136C55.5049 19.197 53.7877 19.1427 52.6472 19.1006C52.6267 20.7831 52.6176 22.4659 52.6201 24.1485L52.6289 26.6025L50.1196 26.6206C50.0522 25.4276 50.1136 23.8516 50.0936 22.6296C50.079 21.7385 50.0401 19.925 50.152 19.1486L48.6054 19.1113C48.6057 18.705 48.6002 18.2986 48.589 17.8924C48.5543 16.8395 49.322 16.9676 50.1068 16.9442C50.0859 16.0023 50.0826 15.3769 50.1639 14.4375Z" fill="#909090"/>
<path d="M61.612 16.8197C62.3668 16.7749 63.5248 16.7993 64.3061 16.7936C64.334 17.5355 64.3891 18.4057 64.3348 19.1354C60.5321 19.298 60.2883 18.2018 60.301 22.5026L60.319 26.4359C59.9837 26.7478 58.2999 26.6228 57.7483 26.6186C57.7123 25.5031 57.7748 24.3197 57.7613 23.2056C57.7179 19.6199 57.1686 17.233 61.612 16.8197Z" fill="#909090"/>
<path d="M89.0773 33.0169C89.9988 32.9883 91.764 32.8304 92.5587 33.3233C92.7764 33.5289 92.9237 34.1135 92.9343 34.3732C92.9933 35.7961 93.3354 37.1886 91.5202 37.3794C90.4751 37.4152 89.0494 37.5709 88.1042 37.0754C87.7809 36.8195 87.6459 36.0481 87.6434 35.6979C87.6336 34.2413 87.4634 33.3622 89.0773 33.0169ZM90.4137 36.6986C91.6691 36.7162 92.2133 36.6951 92.0799 35.1925C92.0423 34.7714 92.0087 34.2837 91.9744 33.8582C91.4964 33.8247 90.7754 33.756 90.3163 33.7719C88.4463 33.8344 88.6615 33.7085 88.5969 35.5891C88.5486 36.9856 89.1493 36.6994 90.4137 36.6986Z" fill="#909090"/>
<path d="M130.254 32.9141C131 33.0511 133.56 35.5195 134.362 36.2214C134.421 35.6057 134.366 33.2796 134.492 33.0233C135.96 32.3879 135.244 36.6138 135.29 37.2538C135.298 37.3639 135.123 37.489 135.037 37.5679C133.884 37.2551 131.979 35.0986 130.796 34.2511C130.805 34.9905 130.82 36.4992 130.774 37.2955C130.767 37.4031 130.545 37.461 130.433 37.504C129.452 37.2798 129.981 34.4416 129.878 33.6495C129.838 33.3372 130.007 33.0999 130.254 32.9141Z" fill="#909090"/>
<path d="M139.315 33.0157C139.707 33.0013 140.307 32.9408 140.656 33.0763C140.804 33.2286 140.809 33.2643 140.828 33.4795C140.481 34.0034 139.674 33.6338 139.139 33.9167C138.897 34.4038 139.107 34.7162 139.605 34.825C140.797 35.0874 143.101 34.3531 143.108 36.2462C143.113 37.7596 140.653 37.405 139.55 37.4121C139.095 37.4413 138.225 37.6195 138.069 37.1169C138.125 36.9863 138.162 36.8212 138.314 36.7503C139.225 36.3258 141.928 37.3276 142.216 36.0561C141.692 35.1386 138.367 36.226 138.052 34.6569C137.862 33.7139 138.516 33.215 139.315 33.0157Z" fill="#909090"/>
<path d="M81.3879 33.0382C81.8331 33.0147 82.3256 32.9727 82.7651 33.0254C82.9885 33.2501 82.973 33.1743 83.0433 33.4564C82.7225 33.8308 81.9017 33.7512 81.3065 33.8951C81.1972 34.057 81.1795 34.0466 81.1916 34.2784C81.3569 35.5256 84.3372 34.3632 84.8905 35.2845C86.4331 37.8552 82.7864 37.4197 81.6954 37.408C81.3572 37.4165 80.4551 37.4888 80.246 37.2911C80.1743 36.9941 80.1579 37.0992 80.2774 36.8529C81.1036 36.3436 84.6801 37.2892 84.334 35.9679C83.5025 35.2394 80.6952 36.2075 80.2537 34.6335C79.9938 33.7071 80.5388 33.2658 81.3879 33.0382Z" fill="#909090"/>
<path d="M101.64 33.0136C102.038 32.9867 102.047 32.9208 102.337 33.0882C102.878 33.9576 102.068 35.7373 102.702 36.4611C103.024 36.8283 105.881 36.8843 106.094 36.3187C106.322 35.7174 105.922 33.606 106.292 33.0409C106.518 32.9784 106.61 33.0053 106.835 33.0454C107.02 33.2603 106.965 33.3032 106.982 33.6312C106.988 34.2867 107.162 36.7179 106.69 37.0298C105.851 37.5854 102.401 37.6791 101.765 36.8392C101.437 36.4061 101.553 33.6581 101.64 33.0136Z" fill="#909090"/>
<path d="M109.747 33.0323C110.373 32.9896 113.784 32.8935 114.153 33.0983C114.29 33.2642 114.388 33.3513 114.392 33.5698C114.121 33.8635 112.825 33.7592 112.378 33.7566C112.293 34.3805 112.315 35.3106 112.312 35.9638C112.324 36.4871 112.505 37.1567 112.052 37.4222C111.796 37.4376 111.724 37.4454 111.478 37.343C111.283 36.9705 111.419 34.4192 111.438 33.8105C110.827 33.7297 109.794 33.896 109.387 33.5359C109.342 33.2725 109.332 33.3756 109.457 33.1131L109.747 33.0323Z" fill="#909090"/>
<path d="M95.0992 32.9736C95.2702 32.9662 95.4633 32.9777 95.636 32.984C96.4372 33.5898 95.7146 35.4304 95.9617 36.2342C96.2809 37.268 98.5642 36.285 99.4825 36.7972C99.6511 36.9932 99.6388 37.1224 99.6543 37.3759C98.8147 37.4362 95.9307 37.6271 95.4167 36.9656C94.8266 36.2071 95.0689 34.0019 95.0992 32.9736Z" fill="#909090"/>
<path d="M117.674 33.0246C117.97 33.0027 118.092 32.9845 118.385 33.0539C118.566 33.3671 118.545 36.8825 118.5 37.4397C118.204 37.4489 118.01 37.4708 117.726 37.3789C117.492 37.062 117.628 33.5879 117.674 33.0246Z" fill="#909090"/>
<path d="M125.453 17.2218C125.85 16.9263 125.716 17.2169 126.138 16.9854C126.154 16.8154 126.16 16.6622 126.165 16.4916C126.206 16.4546 126.25 16.4199 126.295 16.3876C126.711 16.0906 127.271 16.2301 127.711 16.3761C127.788 16.4017 127.882 16.5796 127.933 16.6566C127.774 16.9909 127.642 17.2781 127.441 17.5926C126.684 17.8482 126.506 17.8734 125.678 17.8798L125.45 17.6975L125.453 17.2218ZM127.08 17.4843C127.387 17.3107 127.644 17.1505 127.667 16.7612C127.508 16.5591 127.303 16.5596 127.057 16.6255C126.891 16.817 126.847 16.8729 126.607 16.9728C126.476 17.1778 126.41 17.2092 126.406 17.4319C126.666 17.5943 126.716 17.548 127.08 17.4843Z" fill="#909090"/>
<path d="M127.058 16.6253C127.304 16.5594 127.509 16.5589 127.668 16.761C127.645 17.1503 127.388 17.3104 127.081 17.4841C126.717 17.5477 126.667 17.5941 126.407 17.4316C126.411 17.209 126.478 17.1776 126.609 16.9725C126.848 16.8726 126.892 16.8167 127.058 16.6253Z" fill="#909090"/>
<path d="M125.465 17.0524C125.589 16.6621 125.469 15.8074 126.267 15.898C126.802 15.9587 127.195 16.0592 127.743 16.0533L127.863 16.3361C127.889 16.114 127.939 15.8909 127.985 15.6714L127.988 16.6536L127.938 16.6558C127.887 16.5788 127.792 16.4009 127.715 16.3754C127.276 16.2293 126.715 16.0899 126.299 16.3868C126.254 16.4192 126.211 16.4539 126.17 16.4908C126.164 16.6614 126.159 16.8146 126.143 16.9846C125.721 17.2162 125.854 16.9255 125.458 17.2211L125.465 17.0524Z" fill="#909090"/>
<path d="M125.461 8.53753C125.821 8.4536 126.25 8.2711 126.601 8.13379L126.75 8.57052C126.412 8.76474 126.077 8.80674 125.697 8.87822L125.461 8.53753Z" fill="#909090"/>
<path d="M123.713 9.55206C124.365 8.91448 124.752 9.00405 125.458 8.5376L125.694 8.87829C125.431 9.03476 124.1 9.41336 123.713 9.55206Z" fill="#909090"/>
</svg>
