<?xml version="1.0" encoding="UTF-8"?>
<svg id="Layer_2" data-name="Layer 2" xmlns="http://www.w3.org/2000/svg" viewBox="0 0 1181.81 301.98">
  <defs>
    <style>
      .cls-1 {
        fill: #f2f4f6;
      }

      .cls-1, .cls-2 {
        stroke-width: 0px;
      }

      .cls-2 {
        fill: #f1612c;
      }
    </style>
  </defs>
  <g id="Layer_1-2" data-name="Layer 1">
    <g>
      <g>
        <polygon class="cls-2" points="242.42 299.99 173.18 299.99 0 .04 69.24 .04 242.42 299.99"/>
        <path class="cls-2" d="m224.9,94.54h-.01s.01-.02.01-.02v.02Z"/>
        <path class="cls-2" d="m369.72,73.77c0,4.7-.43,9.3-1.27,13.77-4.43,23.27-19.75,42.69-40.48,52.66-9.69,4.7-20.53,7.31-32,7.31h-40.49l88.04,152.48h-69.24l-122.64-212.45,144.32-.07c7.61,0,13.75-6.14,13.75-13.75s-6.14-13.74-13.75-13.74h-160.27L101.05,0h194.92c18.95,0,36.23,7.13,49.28,18.9,11.76,10.57,20.11,24.88,23.17,41.08.87,4.44,1.3,9.07,1.3,13.8Z"/>
        <polygon class="cls-2" points="517.37 0 358.94 274.4 324.32 214.46 448.14 0 517.37 0"/>
      </g>
      <g>
        <g>
          <path class="cls-1" d="m594.43,0h48.43c16.84,0,29.29,2.11,38.86,6.89,13.4,6.51,22.4,18.18,22.4,36.18,0,17.04-8.23,30.05-25.46,37.33l36.75,58.19h-44.6l-30.82-52.64h-6.13v52.64h-39.43V0Zm49.19,58.96c7.27,0,12.44-.96,15.5-2.87,3.64-2.11,5.55-5.74,5.55-10.91,0-5.93-2.68-9.57-6.7-11.48-3.25-1.53-7.85-2.3-16.84-2.3h-7.27v27.56h9.76Z"/>
          <path class="cls-1" d="m773.49,0h38.86l56.08,138.58h-42.88l-9.76-28.33h-47.47l-10.15,28.33h-40.77L773.49,0Zm18.76,42.11c-2.68,8.8-5.36,16.84-8.61,25.84l-4.79,13.21h26.8l-4.59-13.21c-3.25-9.38-5.74-17.23-8.42-25.84h-.38Z"/>
          <path class="cls-1" d="m873.41,0h44.98c17.99,0,31.39,2.11,41.73,7.27,14.36,7.08,24.12,19.72,24.12,39.05,0,16.08-6.89,28.52-20.67,36.56-10.72,6.32-25.46,9.38-44.41,9.38h-6.32v46.32h-39.43V0Zm46.51,62.4c8.61,0,14.55-.77,17.8-2.49,4.59-2.3,7.08-6.7,7.08-12.82s-2.68-10.91-7.66-13.21c-3.64-1.72-8.42-2.49-18.38-2.49h-5.93v31.01h7.08Z"/>
          <path class="cls-1" d="m995.76,0h39.43v138.58h-39.43V0Z"/>
          <path class="cls-1" d="m1053.18,0h39.81c28.71,0,50.34,4.79,65.08,15.89,15.31,11.48,23.74,30.24,23.74,53.6,0,20.67-6.51,37.9-19.72,49.96-13.78,12.44-35.03,19.14-68.33,19.14h-40.58V0Zm40.96,105.28c25.07,0,35.22-4.98,41.15-12.06,5.17-6.32,7.08-14.74,7.08-23.74,0-13.02-4.02-22.4-11.87-28.33-8.42-6.32-21.06-7.85-36.56-7.85h-1.34v71.97h1.53Z"/>
        </g>
        <g>
          <path class="cls-1" d="m461.28,161.29h41.35l13.4,49.19c3.25,11.87,6.51,24.31,9.38,35.79h.38c3.06-11.48,6.7-24.31,10.15-35.99l14.36-49h28.9l13.97,48.81c3.45,12.06,6.89,24.31,9.95,36.18h.38c3.25-12.25,6.7-24.69,10.14-36.75l13.78-48.24h39.81l-42.3,138.58h-41.73l-9.57-33.5c-3.45-12.25-6.7-23.93-9.76-35.99h-.38c-3.25,12.25-6.7,24.69-10.14,36.56l-9.57,32.92h-40.77l-41.73-138.58Z"/>
          <path class="cls-1" d="m736.53,159.18c41.73,0,74.08,31.39,74.08,71.4s-32.35,71.4-74.08,71.4-74.08-31.39-74.08-71.4,32.35-71.4,74.08-71.4Zm0,107.38c19.52,0,34.65-15.89,34.65-35.99s-15.12-35.99-34.65-35.99-34.65,15.89-34.65,35.99,15.12,35.99,34.65,35.99Z"/>
          <path class="cls-1" d="m822.28,161.29h48.43c16.84,0,29.29,2.11,38.86,6.89,13.4,6.51,22.4,18.18,22.4,36.18,0,17.04-8.23,30.05-25.46,37.33l36.75,58.19h-44.6l-30.82-52.64h-6.13v52.64h-39.43v-138.58Zm49.19,58.96c7.27,0,12.44-.96,15.5-2.87,3.64-2.11,5.55-5.74,5.55-10.91,0-5.93-2.68-9.57-6.7-11.48-3.25-1.53-7.85-2.3-16.84-2.3h-7.27v27.56h9.76Z"/>
          <path class="cls-1" d="m950.58,161.29h39.43v60.1l.38.19,40.01-60.3h46.32l-45.75,64.32,49.58,74.27h-47.85l-42.3-67.95-.38.19v67.76h-39.43v-138.58Z"/>
          <path class="cls-1" d="m1081.7,255.08c17.23,9.95,36.75,14.16,46.32,14.16,8.04,0,13.78-2.87,13.78-9.95,0-9.95-11.1-9.95-28.71-16.08-21.06-7.27-35.6-17.61-35.6-40.01,0-26.99,20.86-44.03,51.87-44.03,14.36,0,32.16,3.64,45.17,10.15v36.37c-16.65-9.38-35.03-13.78-44.79-13.78-7.27,0-12.25,2.3-12.25,8.42,0,9,10.72,9,27.56,14.93,21.63,7.66,36.75,18.38,36.75,41.73,0,27.95-22.01,44.98-54.17,44.98-14.16,0-31.97-3.25-45.94-9.95v-36.94Z"/>
        </g>
      </g>
    </g>
  </g>
</svg>