<svg width="137" height="51" viewBox="0 0 137 51" fill="none" xmlns="http://www.w3.org/2000/svg">
<g clip-path="url(#clip0_173_8169)">
<path d="M93.4967 16.5639C107.343 15.8413 110.121 33.1814 97.0206 36.3834C96.2449 36.5731 95.4805 36.5682 94.7194 36.7111C91.078 36.7398 88.3032 36.3912 85.4813 33.7346C83.6085 31.904 82.8461 29.7351 82.68 27.2008C82.2683 20.8989 87.4936 16.7431 93.4967 16.5639ZM95.788 35.7849C104.338 34.6314 105.197 24.1297 99.11 19.4559C97.5028 18.222 94.6151 17.2817 92.5829 17.5504C91.3775 17.7346 90.3448 17.8577 89.2928 18.4456C81.3039 22.9089 85.4421 35.3192 94.0898 35.7718C94.6895 35.8032 95.2095 35.7982 95.788 35.7849Z" fill="#909090"/>
<path d="M89.1442 21.2096C91.7622 19.4207 94.7773 19.3165 97.5023 21.1217C97.7779 21.3039 98.448 21.7404 98.5602 22.0161C98.3052 22.6022 96.5625 23.396 97.7799 24.0938C98.3039 24.3942 99.8546 24.1043 100.105 24.2372C100.111 24.2928 100.132 24.3462 100.098 24.3857C99.9343 24.5821 99.5797 24.6323 99.3266 24.6861C98.5569 24.85 97.9997 25.5517 97.2027 25.5985C96.4855 25.6407 95.8167 25.3404 95.1047 25.3049C93.6868 25.2338 92.1872 25.3348 90.7799 25.194C90.2453 25.1406 89.7698 24.7136 89.0718 24.6627C88.6939 24.5004 87.867 24.0683 87.8245 24.8887L87.9773 25.0163C88.3067 25.052 89.7771 25.1761 89.9803 25.294C89.9684 25.3231 88.4535 26.463 88.2157 26.6783C89.2232 26.9679 90.2094 27.3514 91.2202 27.561C91.7848 27.6781 92.7829 27.5442 93.287 27.6828C93.3687 28.2989 92.326 28.0138 92.0252 28.184C92.144 28.4627 93.1303 28.6091 93.4604 28.6743C94.1431 28.8593 94.43 28.8057 94.5382 29.5798C94.1192 29.7812 92.9257 29.9331 92.3791 30.0846C91.8731 30.225 91.5311 30.3556 91.033 30.5259C91.5297 30.6621 92.1029 30.7009 92.5107 31.0294L92.496 31.1247C92.0577 31.3186 89.9976 31.1396 89.4125 31.0964C89.0319 30.7766 87.6499 29.1392 88.2336 28.7512C88.5358 28.9075 88.5664 28.964 88.8772 28.8297L88.8234 28.5075L88.7796 28.4439C88.3924 28.3016 87.8219 28.6515 87.6585 28.2033C87.015 26.4368 87.2992 22.7947 88.8573 21.5984L89.1827 21.7914C89.5958 21.9115 92.2888 21.8398 92.0717 20.9913C91.802 20.9792 91.4547 21.268 91.2202 21.3017C90.772 21.3664 89.6429 21.6622 89.277 21.6761C89.18 21.3849 89.1169 21.5991 89.1442 21.2096Z" fill="#909090"/>
<path d="M91.0007 28.8269C91.026 28.8374 91.1302 28.8458 91.1641 28.8495L91.3607 28.6299C91.7811 28.5795 91.722 28.8692 92.1464 28.8971C92.7966 28.9397 92.8417 28.6604 93.4613 28.6736C94.1441 28.8585 94.431 28.805 94.5392 29.5791C94.1202 29.7804 92.9267 29.9323 92.3801 30.0839C91.8741 30.2243 91.5321 30.3549 91.034 30.5252C91.5307 30.6614 92.1039 30.7002 92.5116 31.0286L92.497 31.124C92.0587 31.3179 89.9986 31.1389 89.4135 31.0956C89.0329 30.7758 87.6509 29.1384 88.2346 28.7505C88.5368 28.9067 88.5674 28.9632 88.8782 28.8289C89.0821 28.9403 88.9991 28.9166 89.2302 28.9048L90.3021 28.9817C90.5624 28.9093 90.7026 28.9705 91.0007 28.8269Z" fill="#909090"/>
<path d="M91.0024 28.8269C91.0276 28.8374 91.1319 28.8458 91.1658 28.8495L91.3623 28.6299C91.7827 28.5795 91.7236 28.8692 92.148 28.8971C92.7982 28.9397 92.8433 28.6604 93.463 28.6736C94.1457 28.8585 94.4326 28.805 94.5409 29.5791C93.7167 29.2123 91.3989 29.1066 90.3037 28.9817C90.5641 28.9093 90.7042 28.9705 91.0024 28.8269Z" fill="#909090"/>
<path d="M89.227 28.9044C89.2031 28.6729 89.1779 28.7288 89.2636 28.5341C89.4462 28.4426 90.0074 28.4659 90.3182 28.4312C90.4995 28.5266 90.8581 28.699 90.9976 28.8266C90.6994 28.9702 90.5593 28.9089 90.2989 28.9813L89.227 28.9044Z" fill="#909090"/>
<path d="M88.8242 28.5073C89.0487 28.3636 90.0263 28.4117 90.3212 28.432C90.0104 28.4668 89.4492 28.4435 89.2665 28.535C89.1809 28.7297 89.2061 28.6738 89.23 28.9053C88.9989 28.9171 89.0819 28.9408 88.878 28.8294L88.8242 28.5073Z" fill="#909090"/>
<path d="M89.2779 21.6774C89.6438 21.6635 90.7729 21.3677 91.2211 21.303C91.4556 21.2692 91.8029 20.9805 92.0726 20.9926C92.2897 21.8411 89.5967 21.9127 89.1836 21.7927L89.2779 21.6774Z" fill="#909090"/>
<path d="M87.9809 25.0168L87.8281 24.8892C87.8706 24.0688 88.6975 24.5008 89.0754 24.6632C88.6915 24.8433 88.386 24.9014 87.9809 25.0168Z" fill="#909090"/>
<path d="M95.7437 28.8811C95.8121 28.8557 95.9927 28.8623 96.0751 28.8616L96.1209 28.9512C95.913 29.1631 95.729 29.2037 95.4514 29.298C95.3784 29.3415 95.1732 29.3625 95.0782 29.3771L95.0742 29.2879C95.2522 29.0626 95.4793 28.9941 95.7437 28.8811Z" fill="#909090"/>
<path d="M88.8564 21.5983C88.9175 21.539 88.9893 21.3654 89.1433 21.2095C89.1161 21.599 89.1792 21.3847 89.2762 21.676L89.1819 21.7913L88.8564 21.5983Z" fill="#909090"/>
<path d="M7.94454 16.561C9.94012 16.496 11.8211 16.6381 13.6387 17.5456C13.9576 17.3005 14.1275 17.1256 14.5082 17.3052C15.049 17.9578 14.8087 19.8424 15.0492 20.704C15.1339 21.0071 15.2115 21.6591 14.9479 21.8839C14.7359 21.93 14.5188 21.8118 14.3116 21.7281C13.8311 20.5354 13.6158 19.8722 12.6105 18.9878C11.2489 17.8168 9.4824 17.354 7.68938 17.4449C5.62831 17.5495 2.92077 18.7345 3.12629 21.2108C3.30989 23.4232 5.97222 23.9816 7.70658 24.4768C9.73789 25.0567 12.2789 25.552 13.974 26.8785C14.9157 27.6275 15.6527 28.8262 15.7491 30.0183C15.8703 31.5472 15.6426 32.8602 14.593 34.0453C12.7959 36.0742 10.4089 36.5049 7.86039 36.71C5.04678 36.7534 4.34361 36.6237 1.7428 35.4978C1.62363 35.3261 1.53705 35.1339 1.48736 34.9309C1.3047 34.2001 0.208258 30.7777 1.13234 30.5991C1.67934 30.7512 1.87583 32.2175 2.28204 32.7123C2.5809 33.1741 2.87853 33.4459 3.26482 33.8606C6.09532 36.8996 13.9027 36.3341 14.0341 31.3919C14.0471 30.9001 13.7741 29.9303 13.3362 29.5695C10.3964 27.1474 5.68088 27.7442 2.79367 25.1548C1.0255 23.5855 0.949113 20.3442 2.56526 18.6356C3.99658 17.1225 5.90202 16.6172 7.94454 16.561Z" fill="#909090"/>
<path d="M122.528 34.9877C122.667 32.4531 122.514 29.4976 122.562 26.9076C122.609 24.3218 122.54 21.6215 122.54 19.0263C122.54 18.8269 122.518 18.3882 122.381 18.2317C121.777 17.5407 120.309 18.0332 120.16 17.2865C120.274 17.12 120.889 16.926 121.089 16.8729C122.07 16.6122 122.995 16.288 123.903 15.8268C124.207 15.6717 124.444 15.5728 124.79 15.6508C124.976 15.8428 124.935 16.8339 124.93 17.1581C124.866 21.4406 125.006 25.7716 124.929 30.0491C124.927 30.1378 124.923 30.2264 124.917 30.315C126.106 29.436 127.242 28.4236 128.401 27.5011C128.862 27.1341 129.854 26.5983 129.965 26.0127C129.77 25.3608 128.943 25.5561 128.506 25.1928L128.472 25.0925C128.537 24.9952 128.677 24.8086 128.8 24.8066C130.511 24.7801 132.224 24.8993 133.938 24.7213C134.084 24.7061 134.246 24.7787 134.363 24.8597C134.475 25.0741 134.446 24.9988 134.436 25.2532C133.727 25.4871 132.537 25.8041 131.923 26.1531C130.302 27.0757 128.947 28.4695 127.389 29.5631C127.923 29.9604 128.285 30.5652 128.802 31.0646C130.345 32.556 131.912 34.9169 133.959 35.646C134.48 35.8314 135.331 35.5584 135.598 36.1769C135.567 36.3678 135.596 36.3658 135.491 36.5005C135.312 36.5189 135.153 36.5248 134.974 36.5119C133.63 36.4155 132.326 36.442 130.984 36.5537C130.463 35.7137 128.55 34.0109 127.811 33.2156C127.1 32.4515 126.42 31.5857 125.72 30.841C125.492 31.1195 125.223 31.3052 124.919 31.4979C124.929 32.2038 124.783 34.4608 125.148 35.0268C125.542 35.6383 127.399 35.4999 127.491 36.2178C127.423 36.3355 127.376 36.4703 127.232 36.4905C126.501 36.593 125.653 36.4462 124.913 36.4392C124.116 36.4335 123.319 36.4502 122.523 36.4891C122.226 36.5017 121.358 36.5542 121.093 36.5256C121.038 36.3833 121.034 36.2919 121.018 36.1436C121.132 35.8985 121.085 35.976 121.334 35.8051C121.847 35.5949 122.135 35.3805 122.528 34.9877Z" fill="#909090"/>
<path d="M111.219 24.4601C112.961 24.333 115.214 24.3279 116.68 25.4206C117.773 26.2354 117.572 27.2811 117.561 28.5112L117.542 32.0766C117.536 33.2867 117.287 34.7654 118.329 35.5625C118.802 35.6263 119.608 35.4811 119.88 35.8336L119.859 35.9355C119.696 36.1324 119.464 36.2666 119.228 36.3525C117.819 36.8642 116.15 36.4905 115.555 35.0716C114.042 36.5034 110.349 37.3804 108.434 36.2096C108.055 35.9783 107.829 35.6492 107.61 35.2721C107.337 34.4689 107.276 33.1874 107.772 32.4946C109.147 30.5712 113.135 29.9698 115.218 29.742C115.173 28.7642 115.381 27.4355 114.947 26.5947C114.152 25.0546 111.148 24.8913 109.858 25.6407C109.19 26.5901 109.508 27.2172 109.667 28.3015C109.451 28.3883 109.149 28.4845 108.924 28.563C105.707 28.0176 107.967 25.7206 109.556 24.95C110.177 24.649 110.558 24.5815 111.219 24.4601ZM110.281 35.3784C111.404 36.4597 114.694 35.5299 115.137 34.0091C115.215 33.7382 115.249 30.6487 115.175 30.495L115.106 30.4899C113.634 30.7681 110.865 31.1347 109.945 32.4556C109.308 33.3684 109.512 34.5757 110.281 35.3784Z" fill="#909090"/>
<path d="M55.9901 24.4576C58.9491 24.1406 61.5872 25.3558 62.5524 28.3354C62.6495 28.6353 62.6862 28.9319 62.5267 29.2151C62.2438 29.4198 54.3416 29.3258 53.2216 29.3612C53.4496 31.7164 53.9577 33.6935 56.2981 34.7614C57.8019 35.4475 59.2329 35.2589 60.7428 34.6919C61.2494 34.4679 62.2935 33.6628 62.7257 33.762C63.2349 34.9175 59.5821 36.4474 58.664 36.595C56.8267 36.8902 55.0965 36.7594 53.5332 35.6706C49.0618 32.5562 50.4758 25.4171 55.9901 24.4576ZM57.0374 28.5382C57.5205 28.5432 59.4496 28.6315 59.7494 28.4319C60.6 27.8656 59.1501 26.2177 58.6532 25.889C57.7812 25.312 57.2637 25.1448 56.2756 25.1786C54.3496 25.5215 53.61 26.7049 53.2265 28.5475L57.0374 28.5382Z" fill="#909090"/>
<path d="M30.7388 15.6093C31.3078 15.5871 31.2659 15.9674 31.2646 16.4705C31.2502 22.3495 31.2849 28.231 31.2477 34.1091C31.2355 36.0481 33.2876 35.2055 33.8082 36.0617C33.8132 36.3005 33.8241 36.2189 33.6897 36.4356C33.3477 36.567 29.2185 36.4572 28.54 36.4801C28.1938 36.5153 27.4378 36.6871 27.3362 36.2543C27.507 35.8848 28.3808 35.4408 28.88 34.9673C28.9354 34.0268 28.9072 32.8506 28.9078 31.8979L28.909 26.6685L28.9082 22.0273C28.9078 20.8377 28.98 19.2856 28.7222 18.156C28.1109 17.7387 27.0146 17.8297 26.8079 17.4934C26.7932 17.1192 26.8433 17.0596 27.2186 16.9478C27.7452 16.7909 28.3118 16.71 28.8192 16.4984C29.4579 16.2321 30.0594 15.7458 30.7388 15.6093Z" fill="#909090"/>
<path d="M42.6977 33.9057C43.3389 32.7138 46.1749 27.5596 46.1224 26.5642C46.0582 25.346 44.7138 25.7992 44.0666 25.2291C43.8363 24.402 45.8354 24.7607 46.1379 24.7738C46.6506 24.7959 47.5791 24.8241 48.0561 24.7029L48.077 24.6974C48.522 24.6735 49.169 24.5827 49.4007 25.063C49.3851 25.1201 49.3638 25.1758 49.327 25.2231C48.9671 25.6857 48.2574 25.6224 47.8415 26.2578C46.8747 27.7348 42.8168 36.1954 42.2085 36.6382C42.116 36.7055 42.069 36.7302 41.9521 36.7092C41.3897 36.6082 40.8975 35.3019 40.6755 34.8351C39.7845 32.9624 38.8272 31.1137 37.9048 29.2558C37.3928 28.2246 36.9509 27.0245 36.2699 26.0986C35.6979 25.3209 35.0976 25.5479 34.865 25.2312C34.7875 25.0258 34.845 24.9257 34.9188 24.7137C35.7134 24.6302 37.0691 24.8057 37.9548 24.7801C38.4399 24.766 40.511 24.6288 40.8052 24.7742C40.9643 24.9631 40.9399 24.8818 40.9543 25.1114C40.6622 25.6184 39.2404 25.3727 39.1073 26.0466C39.2785 26.618 39.6357 27.348 39.8893 27.9064L41.3701 31.102C41.7942 32.0175 42.1298 33.0934 42.6977 33.9057Z" fill="#909090"/>
<path d="M68.1802 24.171C68.3303 24.1446 68.6179 24.1126 68.6929 24.2673C68.9785 24.8568 68.8649 26.0372 68.8218 26.6678C69.897 25.4409 71.2379 23.6883 73.0875 24.715C73.399 24.888 73.9529 25.229 74.087 25.5797C74.1534 25.7549 73.9854 26.1238 73.8818 26.261C72.6531 27.8131 71.825 26.0685 70.4416 26.3782C69.6851 26.5478 69.2588 27.1871 68.8855 27.7551C68.7852 28.681 68.7202 34.3316 69.0197 34.9045C69.2017 35.2527 69.5756 35.5575 69.9501 35.6717C70.4775 35.7603 71.3488 35.6146 71.6151 36.1114C71.5885 36.3713 71.6344 36.3547 71.4856 36.496C70.9603 36.554 70.1653 36.4881 69.6081 36.4673C68.8669 36.444 68.1251 36.439 67.3833 36.4521C66.9815 36.4592 65.1473 36.5522 64.8731 36.4641L64.7971 36.3022C64.8436 36.0007 66.0094 35.3868 66.4694 34.9617C66.5066 33.8246 66.6341 27.5455 66.3448 26.876C66.0346 26.159 64.9855 26.4263 64.3959 26.2031C64.2231 26.0288 64.2625 26.114 64.2451 25.8643C64.5026 25.4281 65.4728 25.4437 65.9553 25.2323C66.7118 24.9011 67.4331 24.5198 68.1802 24.171Z" fill="#909090"/>
<path d="M80.3101 5.21215C80.2749 4.26806 80.2025 4.14973 80.7384 3.35114C80.7849 3.28179 80.8553 2.79816 80.9137 2.64062C80.9556 3.00104 80.9609 4.01809 81.024 4.18369C81.3275 4.29832 81.4988 3.94359 81.637 4.30505C82.4393 6.40517 81.5467 6.67745 83.4501 8.01269C83.6752 7.65438 83.8871 7.33511 84.0119 6.92535C84.0883 6.6732 83.9707 6.42704 84.0903 6.2622L84.2517 6.24088C84.3513 6.31839 84.3493 6.29453 84.3606 6.45571C84.4595 7.88847 84.2576 9.27124 84.6149 10.714C84.7664 11.3253 85.4318 11.9482 85.8164 12.4212C86.4612 13.2142 86.9487 14.9937 86.9713 16.0144C86.3377 16.3164 84.864 17.3513 84.5492 17.3137C84.255 16.7348 84.2025 16.3374 83.9827 15.8047C83.6413 14.9779 83.0954 13.6395 82.6219 12.8801C82.3655 12.3952 82.0355 11.7495 81.6728 11.3494C81.6436 11.3283 81.0353 10.151 80.9363 9.98155C80.5451 9.31373 79.8392 8.63788 79.7522 7.88754C80.158 6.51467 79.5822 5.88945 79.4766 4.52634C79.7562 4.75249 80.0338 4.9811 80.3101 5.21215Z" fill="#909090"/>
<path d="M79.1622 7.48779C79.2631 7.70422 79.3953 8.01327 79.5035 8.21689C79.4597 8.12049 81.6473 11.6091 81.5404 11.5047C81.6699 11.7494 82.2783 13.0911 82.3739 13.2066C82.777 14.2 83.1788 14.6142 83.5215 15.3714C83.8064 16.0022 83.9007 16.8455 84.3125 17.7566C83.4146 18.702 82.5506 19.5245 81.9641 20.6867C81.903 20.8082 81.7895 20.8355 81.6679 20.8515C81.3677 20.5847 81.5564 19.6849 81.4581 19.3019C80.9872 17.4666 79.8588 15.6193 78.7371 14.0987C78.4203 13.6688 77.9594 13.4679 77.6964 13.0385L77.7376 12.9141C77.9289 13.0045 78.3154 13.2288 78.4934 13.1823C78.4655 12.9155 78.0132 12.5976 77.8306 12.277C77.4049 11.5325 77.4155 10.9502 76.7381 10.3358C76.6126 10.2218 76.5302 10.0861 76.5422 9.91004C76.8384 9.88713 77.6167 10.6623 77.9388 10.8628C81.0224 12.7831 79.4524 8.99837 78.8905 7.57204L79.1622 7.48779Z" fill="#909090"/>
<path d="M21.9707 24.167C22.1509 24.1577 22.3522 24.1247 22.5004 24.219C22.6624 24.7436 22.6102 26.5516 22.6096 27.2317L22.6026 31.9356C22.6009 32.9173 22.5721 34.0629 22.6539 35.0289C22.8524 35.1743 23.0923 35.3549 23.3172 35.4481C23.8399 35.6648 24.8345 35.733 25.1806 36.2222L25.1495 36.3572C24.7899 36.6073 21.1805 36.4596 20.3416 36.4875C20.0472 36.52 18.8726 36.6356 18.751 36.3046C18.9425 35.9281 19.5572 35.7341 19.96 35.535C20.4452 33.7615 20.2107 32.0455 20.2647 30.2096C20.292 29.2821 20.2601 28.2492 20.2288 27.3178C20.1892 26.1384 19.0711 26.5224 18.579 26.1128C18.492 25.8934 18.5095 25.9748 18.5571 25.7287C18.7637 25.544 19.4642 25.4332 19.7995 25.2708C20.5386 24.9129 21.2277 24.5156 21.9707 24.167Z" fill="#909090"/>
<path d="M75.6514 23.4077C75.844 23.4951 76.2272 23.6676 76.3812 23.7938C76.886 24.2073 77.3177 24.9245 77.942 25.1451C78.0927 25.1262 78.2262 25.1021 78.3245 24.9815C79.3121 23.7652 76.5307 21.4347 75.9761 20.4976C75.8141 20.2237 75.6939 19.6316 75.7058 19.4333C75.9104 19.4458 75.9987 19.8137 76.3009 20.0471C76.4125 19.9239 76.3454 19.5929 76.4025 19.3156L76.4915 19.3018C76.6336 19.4206 76.7127 19.5455 76.8076 19.7032C77.594 21.0125 78.6519 22.098 79.2689 23.5078C79.5372 24.1198 79.9363 25.0955 80.3302 25.6072L80.3481 25.6302C80.4544 26.9956 80.3694 27.6003 80.6702 29.0241C80.5201 29.48 79.9636 29.8814 80.0712 30.4072C80.2677 30.3329 80.5022 29.7972 80.6762 29.5789C80.8509 30.2339 81.3211 31.3467 81.4008 31.7664C81.3563 31.8414 81.3151 31.9189 81.2161 31.9132C79.753 31.83 79.603 32.1814 78.9773 33.6395C78.381 34.3363 77.6438 36.7442 77.0567 37.5114C76.9026 37.7131 76.3075 37.6557 76.0399 37.648C76.3925 36.6145 77.5282 34.1242 78.1326 33.3291C79.666 31.3124 79.4655 31.9652 78.2534 29.6139C77.8257 28.7827 77.4093 27.5078 76.8627 26.6647C76.6157 26.2835 76.105 26.0036 75.9243 25.5965L75.9648 25.5195C76.269 25.5273 76.4583 25.5962 76.5991 25.3069C76.5619 24.4829 76.1302 24.0113 75.6514 23.4077Z" fill="#909090"/>
<path d="M80.0662 30.4082C80.211 30.6144 80.1505 31.0823 79.9606 31.2658C79.7301 30.9583 79.8656 30.707 80.0662 30.4082Z" fill="#909090"/>
<path d="M63.7025 40.9028L63.7746 40.9305C63.7979 40.9691 63.8262 41.016 63.8597 41.0713C63.8086 42.9992 63.7863 45.878 63.8197 47.7406L63.938 47.7965C64.155 47.6862 64.2721 47.5868 64.4937 47.6948C64.5823 48.2274 63.2995 48.4935 62.9066 48.5979C62.452 48.7188 62.6707 48.2194 62.4538 48.0414C61.2498 48.6691 60.6536 48.8478 59.3347 48.3112C57.7591 47.2114 57.4961 45.1408 59.1051 43.8744C60.0651 43.1188 61.2774 43.2368 62.428 43.4238C62.3951 42.9856 62.4266 42.3961 62.4378 41.9459C62.2233 41.8971 61.947 41.8664 61.8103 41.7069L61.8268 41.5894C62.0921 41.3285 63.2971 41.0238 63.7025 40.9028ZM61.0411 47.8598C61.5003 47.8618 61.9484 47.9162 62.3306 47.6636C62.5516 47.4124 62.4898 45.4134 62.466 44.9593C62.4171 44.0254 61.975 43.569 61.0738 43.5578C59.3476 44.0791 58.9763 45.9507 60.0718 47.3205C60.3429 47.6593 60.6361 47.7412 61.0411 47.8598Z" fill="#909090"/>
<path d="M87.1284 43.3014C92.1141 42.7553 91.871 48.0166 88.7443 48.5177C84.0137 49.1654 83.3176 44.0466 87.1284 43.3014ZM86.8734 47.8811C87.2825 48.0917 87.602 48.2748 88.0741 48.2734C88.6898 47.9609 88.9017 47.8205 89.255 47.2066C90.0114 45.8907 89.3267 43.4868 87.5515 43.5636C85.6228 44.2378 85.9742 46.4827 86.8734 47.8811Z" fill="#909090"/>
<path d="M38.8357 40.8442L38.9129 40.8626C39.1058 41.0753 38.9905 43.6496 38.9785 44.0801C39.7358 43.5594 40.2855 43.2656 41.2449 43.2156C43.4419 43.1012 42.9308 46.4263 42.9254 47.9354C43.4352 48.1031 43.6421 48.2217 44.1008 48.501C43.2779 48.5501 41.5959 48.5494 40.6811 48.5308C40.6316 48.4881 40.5888 48.4512 40.5528 48.42L40.5696 48.3026C40.796 48.0249 41.1475 48.1787 41.511 47.9447C41.7584 47.4733 41.6159 44.9585 41.5176 44.3635C41.1108 43.913 39.6212 43.8257 39.2915 44.2964C38.7484 45.0718 38.9929 46.9908 39.0156 47.9475C39.3162 48.0144 39.6375 48.0559 39.8352 48.2875L39.8121 48.4C39.4013 48.6375 37.0929 48.654 36.7729 48.3738L36.8124 48.256C37.0404 48.076 37.3589 48.0393 37.6491 47.9778C37.6511 46.2323 37.7202 43.6738 37.623 41.9786C37.2439 41.8601 36.8433 41.7601 36.458 41.6584C37.2638 41.4272 38.0574 41.1555 38.8357 40.8442Z" fill="#909090"/>
<path d="M52.3326 41.2017C52.8175 41.413 53.9051 44.3397 54.2214 44.9809C54.4099 45.3629 54.6622 45.8581 54.8606 46.2567C55.062 46.6614 55.3041 47.3595 55.5539 47.7239C55.6859 47.9165 56.3582 48.0364 56.6212 48.2931L56.6127 48.4082C56.3257 48.615 53.1431 48.6905 52.9085 48.3261L53.001 48.1645C53.2404 48.0168 53.6135 48.0151 53.9046 47.988C53.6116 47.2406 53.3932 46.7008 53.0282 45.99L52.2503 45.9731C51.8192 45.9515 51.2548 45.9596 50.8145 45.9543C50.6678 46.5566 50.3423 47.3772 50.1207 47.9796C50.2933 47.9958 50.4657 48.0142 50.6377 48.0347C50.9188 48.0693 51.1255 48.0912 51.3017 48.3164L51.2078 48.4132C50.7361 48.592 48.328 48.7379 48.1318 48.2773L48.207 48.1619C48.4576 48.0262 48.8838 48.0065 49.1821 47.9738C50.3491 46.1556 51.1547 42.7962 52.3326 41.2017ZM50.9229 45.4156L52.2222 45.4108C52.4776 45.4044 52.5751 45.4467 52.757 45.3132C52.6128 45.0042 51.9896 43.5557 51.7917 43.4518C51.5694 44.1613 51.3385 44.793 50.9229 45.4156Z" fill="#909090"/>
<path d="M81.6222 21.1946L80.4281 24.7026L80.3165 24.6983C80.4281 24.8085 79.3177 23.0526 79.3376 23.0996C78.8707 21.9719 78.548 21.2114 77.6667 20.3232C77.1985 19.8515 76.6837 19.0247 76.2149 18.5147C75.8815 18.1469 75.6869 17.3615 75.4451 16.9277C75.317 16.6651 74.8209 16.0495 74.8574 15.7759C75.0865 15.7793 76.1073 16.7677 76.5914 16.7095L76.7369 16.4665L76.8704 16.456C77.3253 16.7166 77.753 17.302 78.0871 17.7198C78.4384 18.0171 78.7837 18.3209 79.1238 18.6313C78.8628 18.1658 78.7067 17.9442 78.3879 17.5178C78.4842 17.2856 78.4297 17.3131 78.6117 17.2264C79.1012 17.4575 79.9685 20.0693 80.6274 19.6426L80.725 19.723C81.0644 20.2358 81.32 20.6589 81.6222 21.1946Z" fill="#909090"/>
<path d="M22.8921 43.2466C23.004 43.2451 23.6326 43.3086 23.6862 43.3253C24.9588 43.723 24.0696 46.6489 24.4099 47.6264C24.5402 48.0008 25.0512 47.604 25.3699 47.6785C25.5221 48.298 23.6278 49.3269 23.0252 47.7452C22.3837 48.1507 20.8001 49.2528 20.1582 48.2073C20.1281 48.1582 20.0717 47.7919 20.0594 47.7111C20.0667 47.4882 20.0705 47.1832 20.1798 46.9952C20.6083 46.258 22.2111 45.7209 22.9967 45.4892C23.079 44.5816 23.1757 44.1334 22.4515 43.48C21.3468 44.0553 21.6939 44.5115 20.7312 44.9997C20.5587 45.0873 20.3566 45.0994 20.1713 45.0241C19.6949 44.4737 20.6456 43.8191 21.0917 43.6015C21.7027 43.3034 22.2345 43.2846 22.8921 43.2466ZM21.6798 47.7744C22.0797 47.8145 22.1342 47.8346 22.5028 47.6074C22.9352 47.341 23.2291 46.3801 22.9741 45.9539C21.994 46.2228 21.0801 46.5143 21.6798 47.7744Z" fill="#909090"/>
<path d="M14.9566 43.3006C15.9237 43.2403 17.1507 43.1866 17.7914 44.0936C17.9672 44.3425 18.1103 44.7093 18.0556 45.0177C17.5681 45.4178 14.1507 44.871 14.0989 45.2963C13.8522 47.3216 15.3918 48.3406 17.3029 47.6526C17.4716 47.5221 17.6457 47.3591 17.8521 47.3258L17.9484 47.4027C17.9077 47.8298 16.8991 48.3992 16.4916 48.4992C15.0237 48.89 12.9194 48.3945 12.5773 46.6823C12.197 44.7797 13.1802 43.6784 14.9566 43.3006ZM14.0803 44.7392C14.5519 44.7301 15.0237 44.7277 15.4955 44.7317C15.9634 44.7391 16.4267 44.8024 16.5752 44.2432C16.5487 43.5833 15.8879 43.5507 15.391 43.5744C14.694 43.7984 14.4451 44.0248 14.1176 44.6634C14.1048 44.6885 14.0924 44.7137 14.0803 44.7392Z" fill="#909090"/>
<path d="M121.053 41.4464C121.685 41.421 122.419 41.5663 123.081 41.4889C123.374 41.4545 124.121 41.4475 124.366 41.6204L124.322 41.7113C124.022 41.8932 123.673 41.9077 123.324 41.9501C123.393 43.723 123.283 45.5194 123.371 47.2966C123.423 48.3415 124.732 48.0246 125.451 47.8888C125.792 47.6102 126.492 46.5678 126.846 46.759C126.945 46.9618 126.872 47.1886 126.83 47.415C126.79 47.7281 126.771 48.1785 126.745 48.5038C126.057 48.5762 121.025 48.681 120.768 48.3117C121.015 47.9627 121.388 48.0021 121.792 47.9628C121.832 45.9648 121.779 43.9576 121.81 41.9563C121.562 41.9158 120.871 41.8439 120.722 41.6842C120.8 41.5155 120.835 41.547 121.053 41.4464Z" fill="#909090"/>
<path d="M113.539 41.4488C113.993 41.4218 114.614 41.5259 115.097 41.533C115.488 41.5387 116.543 41.3443 116.789 41.5732C116.678 41.7475 115.822 41.9906 115.807 42.106C115.663 43.264 115.674 46.9079 115.861 47.8881C116.685 48.0791 117.066 48.0253 117.88 47.8971C118.24 47.601 118.826 46.6461 119.222 46.7649C119.351 46.9562 119.299 47.2599 119.286 47.5029C119.217 47.8116 119.233 48.296 118.961 48.4934C118.526 48.5858 113.431 48.5741 113.111 48.452L113.088 48.31C113.274 48.0619 114.27 48.0745 114.26 47.5348C114.251 47.039 114.232 46.5513 114.231 46.0533C114.239 44.6824 114.23 43.3116 114.206 41.9409C113.913 41.9032 113.267 41.8604 113.08 41.654C113.251 41.4884 113.29 41.5178 113.539 41.4488Z" fill="#909090"/>
<path d="M100.977 43.3064C101.523 43.2151 102.678 43.3433 103.258 43.3926L103.197 44.8931C102.795 44.536 102.599 44.257 102.28 43.8341C102.131 43.7703 101.79 43.6173 101.644 43.584C101.405 43.5293 101.155 43.574 100.95 43.7078C100.76 43.8302 100.614 43.9804 100.562 44.2025C100.683 44.7337 101.381 44.9343 101.858 45.092C104.647 46.0145 103.979 48.3158 101.262 48.6054C99.1278 48.6089 99.1245 48.3569 99.3769 46.3918C99.7415 46.8671 100.012 47.3962 100.296 47.9212C100.637 48.0685 100.971 48.1702 101.325 48.2836C101.781 48.1098 102.587 47.8932 102.411 47.2554C102.134 46.2474 100.521 46.327 99.7661 45.7266C99.0847 45.1846 99.1398 44.7023 99.5668 43.9851C99.8398 43.5667 100.485 43.3706 100.977 43.3064Z" fill="#909090"/>
<path d="M80.1934 43.3051C80.7532 43.2037 81.9015 43.3079 82.4694 43.4303C82.476 43.839 82.4342 44.4341 82.4182 44.8567C81.7381 44.1048 80.991 42.9566 79.8872 43.9748C79.684 44.198 79.86 44.5492 80.0831 44.6803C80.8887 45.1532 82.0025 45.1291 82.565 45.9729C82.9767 46.5908 82.9482 47.2365 82.4634 47.8071C81.855 48.5243 81.1338 48.5479 80.2717 48.6144C79.6143 48.5661 79.1852 48.4786 78.5384 48.3489L78.5357 48.2639C78.5251 47.8819 78.4527 46.9992 78.7144 46.7232L78.8658 46.783C79.1181 47.0346 79.2855 47.5107 79.4296 47.8505C79.7212 47.9952 80.1794 48.1635 80.4922 48.2887C81.5728 47.9826 82.0483 47.7287 81.3211 46.6739C80.4305 46.2523 78.5583 46.044 78.5443 44.7891C78.5331 43.8279 79.3904 43.4409 80.1934 43.3051Z" fill="#909090"/>
<path d="M65.8839 43.3564C66.5404 43.4185 68.7347 43.3539 68.9891 43.599L68.9599 43.7171C68.7148 43.8812 68.388 43.9014 68.0912 43.9469C68.2645 44.478 69.1465 46.3538 69.4307 46.8274C69.9567 45.715 70.2609 45.3235 70.765 44.0332C70.4661 43.9096 69.6293 43.8504 69.6512 43.5739C69.9481 43.3653 72.1078 43.3911 72.511 43.4757L72.5136 43.5988C72.3316 43.8216 71.9172 43.8775 71.6177 43.9484C70.5764 45.3718 70.0523 47.1038 69.1724 48.6111C69.102 48.7321 69.0575 48.7235 68.9353 48.7372C68.315 48.3174 67.1162 44.8085 66.4647 44.0735C66.0775 43.6363 66.008 43.9514 65.7051 43.686C65.728 43.4836 65.7293 43.5365 65.8839 43.3564Z" fill="#909090"/>
<path d="M28.8944 40.96C28.9741 40.9697 29.006 41.0137 29.066 41.0694C29.1503 41.4894 29.0966 43.0906 29.0922 43.6358C29.0861 45.0742 29.0873 46.5126 29.0958 47.951C29.3746 48.0401 29.7216 48.1051 29.8946 48.3139L29.861 48.4199C29.3939 48.6308 27.7543 48.5355 27.1493 48.5233C26.9668 48.5324 26.8788 48.5341 26.7578 48.4119L26.8196 48.2797C27.1237 48.048 27.33 48.0284 27.704 47.9502C27.6997 46.1262 27.7611 43.7754 27.6691 41.9874C27.4043 41.9243 27.2042 41.9254 27.052 41.747C27.204 41.4409 28.4639 41.117 28.8944 40.96Z" fill="#909090"/>
<path d="M94.7692 43.1335C94.8602 43.1282 94.8894 43.1534 94.9691 43.1959C95.0588 43.42 94.9884 43.7457 94.9572 43.9959C95.3875 43.7374 95.6758 43.4008 96.2197 43.3187C97.0731 43.1991 97.963 43.6758 97.2059 44.561C96.654 45.1995 95.6226 43.7718 95.185 44.4217C94.9014 44.8437 95.0243 46.1336 95.017 46.6516C95.013 46.9782 95.0243 47.5588 95.0794 47.8555C95.2295 48.0244 95.5157 48.032 95.7502 48.068C95.9421 48.1286 96.0158 48.1391 96.1447 48.2906L96.1194 48.4155C95.7263 48.6271 92.9841 48.6577 92.6699 48.3562C92.7901 48.0961 93.3819 48.0171 93.6435 47.9618C93.6714 47.2631 93.7478 45.4075 93.5851 44.6975C93.5532 44.5557 93.0989 44.4415 92.9349 44.3953L92.8745 44.2605C92.988 44.0789 93.0239 44.1278 93.2265 44.0481C93.7943 43.8252 94.2552 43.4616 94.7692 43.1335Z" fill="#909090"/>
<path d="M33.41 42.1406C33.6602 42.3877 33.5971 43.0205 33.6003 43.4101C34.0656 43.4121 34.8828 43.3568 35.2366 43.6495L35.2177 43.7584C34.7018 44.0646 34.157 44.0151 33.5688 44.0161C33.64 44.7876 33.4395 47.3803 33.8386 47.7969C34.3865 47.9522 34.9852 47.6735 35.588 47.5435C35.2789 47.842 35.1275 47.9727 34.7781 48.2213L34.7473 48.2433C34.1211 48.6822 33.5138 48.6378 32.81 48.5108C32.7767 48.4835 32.7437 48.4558 32.7111 48.4278C32.1109 47.911 32.1927 47.189 32.1908 46.4608C32.1887 45.633 32.224 44.8231 32.1605 43.9958C31.8702 44.0074 31.6365 44.0568 31.4078 43.8988L31.3945 43.7827C31.6379 43.4649 32.2181 43.2592 32.4759 43.0177C32.8469 42.6701 32.9891 42.4739 33.41 42.1406Z" fill="#909090"/>
<path d="M75.6557 43.2686C75.7712 43.2813 75.7745 43.2905 75.8635 43.3731C75.9545 43.7991 75.8994 47.3809 75.8775 47.9755C76.4453 48.0859 76.5868 48.1602 77.051 48.487C76.088 48.5857 74.8235 48.5432 73.8359 48.5334L73.5822 48.5092L73.5059 48.4143C73.6486 48.1411 74.1866 48.004 74.4874 47.8991C74.52 46.8769 74.5246 45.8539 74.5021 44.8314C74.2464 44.6447 73.8273 44.5114 73.7343 44.2367C74.334 43.9464 75.0971 43.5096 75.6557 43.2686Z" fill="#909090"/>
<path d="M21.3388 18.626C21.7675 18.7495 22.2851 19.1666 22.5033 19.5553C23.0163 20.469 22.2758 21.3555 21.4895 21.7751C21.1113 21.619 20.6304 21.1823 20.3685 20.8693C19.6696 20.0339 20.6702 19.0813 21.3388 18.626Z" fill="#909090"/>
<path d="M75.7147 38.8569C76.0574 38.8593 76.4001 38.8572 76.7428 38.8506C76.3097 39.6356 76.25 40.6658 75.888 41.497C75.809 41.6775 75.7897 41.6533 75.623 41.7093C75.1701 41.5228 74.9523 41.3516 74.583 41.0384C74.8254 40.3826 75.111 39.1633 75.7147 38.8569Z" fill="#909090"/>
<path d="M106.324 47.313C108.466 47.246 107.688 49.4503 106.323 50.3094C106.119 50.3254 106.193 50.3475 106.039 50.2378C106.069 49.7312 106.963 49.3787 106.948 48.7767C106.637 48.2643 105.368 48.6583 106.324 47.313Z" fill="#909090"/>
<path d="M80.6675 29.0254L80.797 28.897C80.9411 29.4638 80.9637 29.7268 81.4007 30.1658C81.4399 30.2051 81.3847 30.6473 81.3602 30.7047C81.5289 31.1442 81.9174 31.632 81.8091 32.1118C81.5222 32.3021 80.6841 32.062 80.5254 32.1408C80.3932 32.2065 79.4116 33.0137 79.3704 33.184C79.3439 33.2958 79.3638 33.5037 79.2011 33.7525L79.0955 33.806L78.9746 33.6408C79.6002 32.1827 79.7503 31.8314 81.2134 31.9145C81.3123 31.9202 81.3535 31.8427 81.398 31.7677C81.3183 31.348 80.8481 30.2352 80.6735 29.5802C80.4995 29.7985 80.265 30.3343 80.0684 30.4085C79.9608 29.8827 80.5174 29.4813 80.6675 29.0254Z" fill="#909090"/>
<path d="M79.5007 8.21932L79.5823 7.95615L79.6561 8.00873L79.747 7.88916C79.834 8.6395 80.54 9.31535 80.9312 9.98317C81.0301 10.1527 81.6385 11.3299 81.6677 11.351L81.5375 11.5072C81.6445 11.6115 79.4568 8.12292 79.5007 8.21932Z" fill="#909090"/>
<path d="M81.6761 11.3491C82.0387 11.7493 82.3688 12.395 82.6251 12.8798C82.4677 12.9894 82.4 12.9906 82.3794 13.2071C82.2838 13.0917 81.6754 11.75 81.5459 11.5053L81.6761 11.3491Z" fill="#909090"/>
<path d="M101.354 15.0469C101.408 15.1103 101.4 15.1633 101.416 15.2595C101.177 15.6384 100.59 15.562 100.221 15.4687C100.145 15.4341 100.067 15.3877 99.9932 15.3472L100.022 15.254C100.409 15.1127 100.838 15.2016 101.331 15.0538L101.354 15.0469Z" fill="#909090"/>
<path d="M78.0918 17.7208C78.0984 17.6343 78.115 17.5325 78.127 17.4452L78.1954 17.4136L78.3528 17.5917L78.3927 17.5188C78.7114 17.9453 78.8675 18.1668 79.1285 18.6324C78.7885 18.322 78.4431 18.0181 78.0918 17.7208Z" fill="#909090"/>
<path d="M78.8954 7.57464C78.7174 7.37328 78.5395 7.19336 78.6045 6.90934L78.7281 6.89746C78.9419 7.01072 79.0482 7.27137 79.1671 7.49039L78.8954 7.57464Z" fill="#909090"/>
<path d="M80.563 18.5659C80.6062 19.1525 81.089 19.1281 80.7237 19.7228L80.6261 19.6424C80.6347 19.6124 80.6427 19.5823 80.65 19.5519C80.7277 19.226 80.6288 19.0921 80.4541 18.8034L80.563 18.5659Z" fill="#909090"/>
<path d="M80.4587 18.8033C80.2682 18.6592 80.2509 18.6976 80.209 18.5145C80.3748 18.4482 80.3495 18.4822 80.5679 18.5652L80.4587 18.8033Z" fill="#909090"/>
<path d="M89.6345 0H89.8889C89.6996 0.585634 89.4764 1.57078 89.7846 2.13511C89.9573 2.44986 90.1346 2.44714 90.4487 2.58302C90.81 3.33843 91.1202 6.39207 92.4471 5.63022C93.5874 4.97577 93.0203 3.65279 94.3173 2.89437C94.399 2.45274 94.5816 1.4166 95.1415 1.34783L95.2404 1.42757C95.1581 1.95447 94.7171 2.92071 95.0372 3.39875C95.7253 3.75712 96.7958 2.80232 97.2554 2.32759C97.7243 1.84243 98.1673 1.43071 98.7431 1.06712C99.9671 1.22011 100.346 0.466633 101.333 0.0364356C101.05 0.476259 100.219 1.27982 100.203 1.54612C100.459 1.53547 100.595 1.39611 100.849 1.45181L100.878 1.5331C100.587 1.97361 98.8201 3.53385 99.4889 4.14911C99.9006 4.20542 100.29 3.84634 100.538 3.94687L100.548 4.09748C99.8814 4.73529 98.8274 5.677 98.7099 6.64977L98.753 6.76881C99.2491 6.93206 100.804 7.38564 101.224 7.10468C101.426 6.96878 101.639 6.73442 101.883 6.7301L101.995 6.77824C102.018 7.57658 99.5062 8.10365 99.2558 8.66836C99.3421 8.78368 99.3082 8.74697 99.4896 8.78475L99.548 8.78481C99.6323 8.97834 99.5779 8.91514 99.7506 9.02773L99.4079 9.14624C97.5941 9.91457 97.1239 10.1078 95.6343 11.4544C96.0108 11.5571 96.238 11.6288 96.6384 11.6651C97.3258 11.7273 99.8322 10.5765 100.36 10.8833C100.336 11.0387 100.316 11.1518 100.279 11.3047C100.527 11.5818 102.365 11.1786 102.804 11.1498C102.927 11.1205 103.119 11.0952 103.25 11.0738C103.199 11.2402 103.187 11.306 103.08 11.4453L102.906 11.611L102.915 11.7043C103.206 11.6875 103.468 11.4862 103.933 11.4334L103.982 11.4988C103.808 11.7397 102.09 12.8981 101.669 13.3241C101.333 13.4807 100.06 14.3814 99.7074 14.6572C99.6025 14.7393 99.6523 14.9244 99.6655 15.0665C99.4344 15.1731 97.7389 14.5867 97.3285 14.5067C94.0397 13.8661 91.5538 14.3528 88.3879 15.225C88.7984 14.8141 89.0361 14.8084 89.0381 14.1495L88.9624 14.0771C88.7452 14.2086 88.5912 14.7552 88.4251 14.9158C88.1462 15.1856 87.6773 15.5118 87.3612 15.7422C86.9514 14.9663 87.0696 14.5951 86.8179 13.8088C86.6765 13.3667 86.2415 12.6343 86.1365 12.1453C86.1113 12.0274 86.3617 11.8619 86.4918 11.7211C86.7303 10.9439 86.9089 6.63813 86.9654 5.62637C86.986 5.25886 86.8206 3.73721 86.7628 3.30365C87.32 4.02816 87.1752 4.57019 87.5013 4.90989L87.6142 4.89179C87.8872 4.49875 88.03 3.84599 88.1349 3.37644C88.1728 3.69982 88.2345 4.45531 88.3388 4.71481C89.3357 7.19484 89.8092 10.0937 89.6677 12.763C89.6491 13.1119 89.1729 13.6122 89.3742 13.9528C89.6305 14.0469 90.1114 14.0245 90.2429 13.7666C90.1897 13.7103 90.0383 13.5433 90.0164 13.4935C89.772 12.8795 91.5904 11.3919 91.7132 11.0449C92.2014 9.66807 92.5653 9.87481 93.2886 9.17764C94.1619 8.33568 95.1873 7.05621 95.5413 5.91485C94.6228 6.62466 93.7488 8.04084 93.1232 9.0367L92.3276 9.33884C91.9098 9.98435 90.9296 12.2339 90.0024 11.9277C89.7846 11.5122 90.0981 11.289 90.0476 10.9469C89.7142 8.69997 89.4459 6.53736 88.7486 4.35544C88.6111 3.9257 88.2737 3.52462 88.206 3.07027C88.1409 2.57055 88.2219 1.97557 88.2996 1.47473C88.5513 1.30499 88.538 1.54016 88.799 1.42115C89.0859 1.14502 89.5097 0.408418 89.6265 0.0252975L89.6345 0Z" fill="#909090"/>
<path d="M99.4908 8.78467L99.5493 8.78473C99.6336 8.97826 99.5792 8.91506 99.7518 9.02766L99.4092 9.14616C99.3308 9.11396 99.3175 9.09013 99.2617 9.02892C99.3248 8.84216 99.2909 8.90258 99.4908 8.78467Z" fill="#909090"/>
<path d="M102.806 11.1502C102.929 11.1209 103.121 11.0956 103.252 11.0742C103.201 11.2406 103.19 11.3064 103.082 11.4457L102.806 11.1502Z" fill="#909090"/>
<path d="M97.2719 12.7246C97.3795 13.0043 97.2141 13.4178 97.1231 13.6967C96.9172 13.678 95.2078 13.7118 95.3313 13.7726C94.3497 13.2884 94.0289 13.645 92.951 13.7612C92.251 13.8366 91.2907 13.8647 90.5462 13.8873L90.4971 13.7603C90.9806 13.2037 92.3879 13.3468 92.9882 13.4562C93.2439 13.4578 93.6524 13.2109 93.8855 13.213C94.697 13.2201 95.4986 13.4356 96.3115 13.2828C96.9112 13.17 96.9199 13.2077 97.2719 12.7246Z" fill="#909090"/>
<path d="M-0.00195312 41.437C0.636018 41.4825 2.7631 41.4429 3.06505 41.6123L3.06609 41.7063C2.87984 41.8778 2.63538 41.8803 2.38185 41.9136C3.13721 43.3062 4.29719 45.3991 4.85711 46.8419C5.16002 46.3268 5.66889 45.5721 5.9261 45.0999C5.42979 44.1799 4.68001 42.8645 4.31482 41.9173C4.03275 41.8666 3.74305 41.844 3.51926 41.6722L3.51994 41.5813C3.89333 41.415 6.42689 41.3939 6.72011 41.6096L6.70398 41.6722L6.70384 41.6216L6.6537 41.5997L6.49843 41.7565L6.52819 41.7629C6.28588 41.8166 6.13648 41.8523 5.88562 41.8686C6.15934 42.4676 6.37837 43.0318 6.76036 43.5672C7.1611 42.9412 7.37601 42.5957 7.65123 41.8888C7.39998 41.8325 7.10259 41.7922 6.90481 41.6374L6.90036 41.5571C7.26948 41.4448 8.85337 41.4472 9.23724 41.5458L9.30823 41.6236C9.16146 41.8191 8.62876 41.8963 8.37021 41.9526C7.96124 42.7096 7.53793 43.4589 7.1004 44.1998C7.52438 45.062 7.84973 45.8153 8.37765 46.622C8.76504 45.92 9.04324 45.1444 9.38381 44.4116C9.76376 43.5942 10.2977 42.7732 10.5784 41.9286C10.3161 41.8793 9.99753 41.8492 9.79657 41.6864L9.80002 41.5859C10.1885 41.4128 11.5899 41.46 12.0236 41.5487L12.1351 41.6322C11.9489 41.8652 11.6369 41.8734 11.3348 41.9209C10.9272 42.8017 8.29802 48.3947 7.98097 48.6719C7.89204 48.6863 7.79149 48.7209 7.73165 48.6438C7.32899 48.1246 6.36409 46.1107 6.21454 45.6128C5.90198 46.2413 4.89951 48.3779 4.45291 48.6984C4.3132 48.7018 4.25827 48.7095 4.1541 48.6063C3.8659 48.3207 3.63478 47.6691 3.4471 47.2957C3.06717 46.54 0.975986 42.3077 0.655009 41.9994C0.493946 41.8446 0.330332 41.8357 0.117145 41.8297C0.0774537 41.8286 0.0377519 41.828 -0.00195312 41.8278L-0.00195312 41.437Z" fill="#909090"/>
<path d="M135.883 47.8269C135.475 48.1845 135 48.43 134.454 48.5018C132.886 48.708 131.475 48.7159 130.126 47.7785C128.496 46.6457 127.878 44.8902 129.009 43.1519C130.134 41.6025 132.295 41.3157 134.069 41.4027C134.805 41.4387 135.893 41.5016 135.901 42.4238C135.904 42.7033 136.002 42.8062 135.814 43.0558C135.451 43.0842 134.644 42.1483 134.355 41.8591C133.294 41.6675 132.193 41.6281 131.36 42.4286C129.912 43.8204 129.888 45.9308 131.239 47.3963C131.725 47.9194 132.556 48.2437 133.258 48.2654C134.361 48.2994 134.836 47.3358 135.468 46.6423C135.631 46.4644 135.806 46.5014 136.018 46.5135V46.9669C135.928 47.1811 135.907 47.5822 135.883 47.8269Z" fill="#909090"/>
<path d="M103.251 11.0734C103.23 10.9408 103.205 10.9268 103.255 10.8191L103.336 10.793C103.681 11.3304 103.984 10.805 104.39 11.0502C104.498 11.2209 104.492 11.2517 104.472 11.4531C104.104 11.7947 103.69 12.0823 103.302 12.4026C102.98 12.6684 102.128 13.596 101.67 13.3237C102.091 12.8977 103.809 11.7393 103.982 11.4984L103.933 11.433C103.469 11.4858 103.207 11.687 102.916 11.7039L102.907 11.6106L103.081 11.4449C103.188 11.3056 103.199 11.2398 103.251 11.0734Z" fill="#909090"/>
<path d="M99.5459 8.78456C100.187 8.75488 100.304 8.27774 100.762 8.35455C100.723 8.73609 100.064 8.91926 99.7485 9.02748C99.5758 8.91488 99.6302 8.97809 99.5459 8.78456Z" fill="#909090"/>
</g>
<defs>
<clipPath id="clip0_173_8169">
<rect width="136.014" height="50.3901" fill="white"/>
</clipPath>
</defs>
</svg>
